<?xml version="1.0" encoding="utf-8"?>
<!-- Generator: Adobe Illustrator 23.0.5, SVG Export Plug-In . SVG Version: 6.00 Build 0)  -->
<svg version="1.1" id="Layer_1" xmlns="http://www.w3.org/2000/svg" xmlns:xlink="http://www.w3.org/1999/xlink" x="0px" y="0px"
	 viewBox="0 0 4743.4 3162.3" style="enable-background:new 0 0 4743.4 3162.3;" xml:space="preserve">
<style type="text/css">
	.st0{fill-rule:evenodd;clip-rule:evenodd;fill:#FFFFFF;}
	.st1{fill-rule:evenodd;clip-rule:evenodd;fill:#E4F1F8;}
	.st2{fill-rule:evenodd;clip-rule:evenodd;fill:#B6D8F8;}
	.st3{fill-rule:evenodd;clip-rule:evenodd;fill:#D6C5FA;}
	.st4{fill-rule:evenodd;clip-rule:evenodd;fill:#3EA4EB;}
	.st5{fill-rule:evenodd;clip-rule:evenodd;fill:#3C9EE6;}
	.st6{fill-rule:evenodd;clip-rule:evenodd;fill:#CBEAFF;}
	.st7{fill-rule:evenodd;clip-rule:evenodd;fill:#BCE3EF;}
	.st8{fill-rule:evenodd;clip-rule:evenodd;fill:#6771BE;}
	.st9{fill-rule:evenodd;clip-rule:evenodd;fill:#454E9B;}
	.st10{fill-rule:evenodd;clip-rule:evenodd;fill:#121C73;}
	.st11{fill-rule:evenodd;clip-rule:evenodd;fill:#B3BEEF;}
	.st12{fill-rule:evenodd;clip-rule:evenodd;fill:#FF8662;}
	.st13{fill-rule:evenodd;clip-rule:evenodd;fill:#FF9F00;}
	.st14{fill-rule:evenodd;clip-rule:evenodd;fill:#FFAD2B;}
	.st15{fill-rule:evenodd;clip-rule:evenodd;fill:#2B1710;}
	.st16{fill-rule:evenodd;clip-rule:evenodd;fill:#693E2F;}
	.st17{fill-rule:evenodd;clip-rule:evenodd;fill:#255872;}
	.st18{fill-rule:evenodd;clip-rule:evenodd;fill:#FF7A52;}
	.st19{fill-rule:evenodd;clip-rule:evenodd;fill:#FF7557;}
	.st20{fill-rule:evenodd;clip-rule:evenodd;fill:#3090D7;}
	.st21{fill-rule:evenodd;clip-rule:evenodd;fill:#221E54;}
	.st22{fill-rule:evenodd;clip-rule:evenodd;fill:#332A7C;}
	.st23{fill-rule:evenodd;clip-rule:evenodd;fill:#A7CAF6;}
	.st24{fill-rule:evenodd;clip-rule:evenodd;fill:#B1C8EF;}
	.st25{fill-rule:evenodd;clip-rule:evenodd;fill:#1A1840;}
	.st26{fill-rule:evenodd;clip-rule:evenodd;fill:#FF7200;}
	.st27{fill-rule:evenodd;clip-rule:evenodd;fill:#FF5A1F;}
	.st28{fill-rule:evenodd;clip-rule:evenodd;fill:#FCDCB5;}
	.st29{fill-rule:evenodd;clip-rule:evenodd;fill:#FBBD72;}
	.st30{fill-rule:evenodd;clip-rule:evenodd;fill:#A7D2F6;}
	.st31{fill-rule:evenodd;clip-rule:evenodd;fill:#C4DFFA;}
	.st32{fill-rule:evenodd;clip-rule:evenodd;fill:#EAF4FF;}
	.st33{fill-rule:evenodd;clip-rule:evenodd;fill:#89C5F3;}
	.st34{fill-rule:evenodd;clip-rule:evenodd;fill:#D3E9FF;}
</style>
<rect class="st0" width="4743.4" height="3162.3"/>
<path class="st1" d="M2783.5,277.2c-999.2-93.3-1070.6,474.9-1202.3,798.8c-49.4,120.8-134.5,211.4-222.3,277.2
	c-112.5,85.1-247.1,137.3-387,153.7C71.4,1627.8,216.9,2843.9,557.2,2945.4h3593.2C5034.4,1262.7,3779.9,370.6,2783.5,277.2z"/>
<path class="st1" d="M1059.6,549c-518.8,2.7-658.8,513.3-376.1,798.8C1070.6,1743.1,2141.1,540.8,1059.6,549z"/>
<path class="st2" d="M2396.4,2950.9c1194.1,0,2160.3,22,2160.3,49.4c0,5.5-54.9,11-153.7,16.5H389.8c-98.8-5.5-153.7-11-153.7-16.5
	C236.1,2972.9,1202.3,2950.9,2396.4,2950.9z"/>
<path class="st3" d="M3801.9,2157.6c2.7,0,5.5-2.7,8.2-5.5c0-2.7,32.9-164.7,104.3-370.6c65.9-189.4,178.4-455.7,343.1-650.6
	c2.7-2.7,2.7-8.2,0-8.2c-2.7-2.7-8.2-2.7-8.2,0c-164.7,194.9-277.2,463.9-343.1,656.1c-71.4,205.9-104.3,367.8-104.3,370.6
	C3793.6,2152.1,3796.4,2154.9,3801.9,2157.6C3799.1,2157.6,3799.1,2157.6,3801.9,2157.6z"/>
<path class="st3" d="M4271.3,1043.1c-22,24.7-24.7,90.6-24.7,90.6s65.9-13.7,87.8-35.7c22-24.7,24.7-54.9,8.2-68.6
	C4323.4,1012.9,4290.5,1018.4,4271.3,1043.1z"/>
<path class="st3" d="M4128.5,1122.7c8.2,30.2,60.4,74.1,60.4,74.1s27.5-63.1,19.2-93.3c-8.2-30.2-30.2-52.2-52.2-46.7
	C4131.3,1062.3,4120.3,1092.5,4128.5,1122.7z"/>
<path class="st3" d="M4274,1150.2c-30.2,5.5-76.9,54.9-76.9,54.9s60.4,32.9,90.6,27.5c30.2-5.5,52.2-27.5,49.4-49.4
	C4331.7,1158.4,4304.2,1144.7,4274,1150.2z"/>
<path class="st3" d="M4216.4,1262.7c-30.2,0-85.1,38.4-85.1,38.4s52.2,43.9,85.1,43.9c30.2,0,57.6-16.5,57.6-38.4
	C4274,1284.7,4249.3,1265.5,4216.4,1262.7z"/>
<path class="st3" d="M4158.7,1394.5c-30.2-5.5-93.3,22-93.3,22s43.9,52.2,74.1,57.6c30.2,5.5,60.4-5.5,65.9-27.5
	C4210.9,1424.7,4191.7,1400,4158.7,1394.5z"/>
<path class="st3" d="M4098.3,1523.5c-30.2-8.2-93.3,19.2-93.3,19.2s41.2,52.2,71.4,60.4c30.2,8.2,60.4-2.7,65.9-24.7
	C4147.7,1556.4,4128.5,1531.7,4098.3,1523.5z"/>
<path class="st3" d="M4040.7,1652.5c-30.2-5.5-90.6,24.7-90.6,24.7s43.9,52.2,74.1,57.6c30.2,5.5,60.4-5.5,63.1-30.2
	C4092.8,1682.7,4070.9,1658,4040.7,1652.5z"/>
<path class="st3" d="M4051.7,1232.5c11,30.2,68.6,65.9,68.6,65.9s19.2-65.9,8.2-93.3c-11-30.2-38.4-46.7-57.6-38.4
	C4048.9,1172.1,4040.7,1202.3,4051.7,1232.5z"/>
<path class="st3" d="M3974.8,1364.3c16.5,27.5,82.4,49.4,82.4,49.4s5.5-68.6-13.7-93.3c-16.5-27.5-46.7-38.4-65.9-24.7
	C3958.3,1306.6,3955.6,1336.8,3974.8,1364.3z"/>
<path class="st3" d="M3906.2,1504.3c22,24.7,87.8,35.7,87.8,35.7s-5.5-68.6-24.7-90.6c-22-24.7-52.2-30.2-68.6-16.5
	C3881.5,1449.4,3884.2,1482.3,3906.2,1504.3z"/>
<path class="st3" d="M3848.5,1652.5c24.7,19.2,93.3,19.2,93.3,19.2s-16.5-65.9-41.2-85.1c-24.7-19.2-57.6-19.2-71.4-2.7
	C3812.9,1603.1,3823.8,1633.3,3848.5,1652.5z"/>
<path class="st4" d="M694.5,2846.6c-474.9-417.2-521.6-1152.9-255.3-1180.4S971.7,2198.8,851,2863.1L694.5,2846.6z"/>
<path class="st5" d="M447.4,2544.6c63.1,107.1,145.5,211.4,247.1,299.2c32.9,2.7,63.1,8.2,96.1,11
	C667,2459.5,546.3,2061.5,422.7,1666.2C230.6,1710.2,219.6,2157.6,447.4,2544.6z"/>
<path class="st6" d="M636.8,2890.5c-312.9-63.1-518.8-373.3-409-452.9c109.8-79.6,367.8,98.8,483.1,420L636.8,2890.5z"/>
<path class="st7" d="M452.9,2821.9c54.9,30.2,118,54.9,183.9,68.6c13.7-5.5,30.2-13.7,43.9-19.2c-151-142.7-307.4-285.5-461.2-428.2
	C145.5,2511.7,255.3,2709.3,452.9,2821.9z"/>
<path class="st4" d="M3941.9,2852.1c474.9-417.2,521.6-1152.9,255.3-1180.4s-532.5,532.5-411.8,1196.8L3941.9,2852.1z"/>
<path class="st5" d="M4188.9,2552.9c-63.1,107.1-145.5,211.4-247.1,299.2c-32.9,2.7-63.1,8.2-96.1,11
	c123.5-395.3,244.3-793.3,367.8-1188.6C4405.8,1718.4,4416.8,2163.1,4188.9,2552.9z"/>
<path class="st6" d="M3966.6,2871.3c312.9-63.1,518.8-373.3,411.8-452.9c-109.8-79.6-367.8,98.8-483.1,420L3966.6,2871.3z"/>
<path class="st7" d="M4150.5,2802.7c-54.9,30.2-118,54.9-183.9,68.6c-13.7-5.5-30.2-13.7-43.9-19.2
	c153.7-142.7,307.4-285.5,461.2-428.2C4457.9,2492.5,4348.1,2690.1,4150.5,2802.7z"/>
<path class="st3" d="M584.7,2736.8c-2.7,0-5.5,0-5.5-2.7c0,0-30.2-109.8-87.8-249.8c-52.2-129-142.7-307.4-263.5-433.7
	c-2.7-2.7-2.7-5.5,0-5.5c2.7-2.7,5.5-2.7,5.5,0c120.8,126.3,211.4,307.4,266.3,436.5c57.6,140,87.8,249.8,87.8,249.8
	C587.4,2734.1,584.7,2736.8,584.7,2736.8L584.7,2736.8z"/>
<path class="st3" d="M211.4,1990.1c16.5,16.5,22,60.4,22,60.4s-46.7-5.5-60.4-19.2c-16.5-16.5-19.2-35.7-8.2-46.7
	C175.7,1970.9,197.6,1976.4,211.4,1990.1z"/>
<path class="st3" d="M312.9,2039.6c-2.7,22-38.4,52.2-38.4,52.2s-22-41.2-16.5-63.1c2.7-22,19.2-35.7,35.7-32.9
	C307.4,1998.4,318.4,2017.6,312.9,2039.6z"/>
<path class="st3" d="M214.1,2064.3c22,2.7,54.9,32.9,54.9,32.9s-38.4,24.7-60.4,22c-22-2.7-38.4-16.5-35.7-32.9
	C172.9,2072.5,192.2,2061.5,214.1,2064.3z"/>
<path class="st3" d="M258,2141.1c22-2.7,60.4,22,60.4,22s-32.9,30.2-54.9,32.9c-22,2.7-41.2-8.2-41.2-24.7
	C219.6,2157.6,236.1,2143.9,258,2141.1z"/>
<path class="st3" d="M304.7,2229c22-5.5,63.1,11,63.1,11s-27.5,38.4-49.4,43.9s-41.2,0-46.7-16.5
	C269,2250.9,282.7,2234.5,304.7,2229z"/>
<path class="st3" d="M351.4,2314.1c22-8.2,65.9,8.2,65.9,8.2s-27.5,38.4-46.7,46.7c-22,8.2-41.2,0-46.7-13.7
	C318.4,2338.8,329.4,2322.3,351.4,2314.1z"/>
<path class="st3" d="M395.3,2401.9c22-5.5,63.1,11,63.1,11s-27.5,35.7-49.4,43.9c-22,5.5-41.2-2.7-46.7-16.5
	C362.3,2423.9,376.1,2407.4,395.3,2401.9z"/>
<path class="st3" d="M370.6,2110.9c-5.5,22-43.9,46.7-43.9,46.7s-16.5-43.9-8.2-65.9c5.5-22,24.7-32.9,38.4-30.2
	C370.6,2069.8,376.1,2091.7,370.6,2110.9z"/>
<path class="st3" d="M431,2198.8c-11,19.2-54.9,35.7-54.9,35.7s-5.5-46.7,5.5-65.9c11-19.2,30.2-27.5,43.9-19.2
	S439.2,2179.6,431,2198.8z"/>
<path class="st3" d="M483.1,2292.1c-13.7,16.5-57.6,27.5-57.6,27.5s0-46.7,13.7-63.1c13.7-16.5,32.9-22,46.7-13.7
	C496.9,2253.7,496.9,2275.6,483.1,2292.1z"/>
<path class="st3" d="M529.8,2393.7c-16.5,13.7-63.1,16.5-63.1,16.5s8.2-46.7,24.7-60.4c16.5-13.7,38.4-16.5,49.4-5.5
	C549,2358,546.3,2377.2,529.8,2393.7z"/>
<polygon class="st8" points="2832.9,2780.7 2234.5,2780.7 2300.3,2390.9 2898.8,2390.9 "/>
<polygon class="st9" points="2876.8,2780.7 2278.4,2780.7 2341.5,2390.9 2939.9,2390.9 "/>
<path class="st9" d="M3626.2,2487h-2100c-52.2,0-96.1-43.9-96.1-96.1V1010.2c0-52.2,43.9-96.1,96.1-96.1h2100
	c52.2,0,96.1,43.9,96.1,96.1v1383.5C3722.3,2443.1,3678.3,2487,3626.2,2487z"/>
<path class="st10" d="M3678.3,2487H1575.6c-52.2,0-96.1-43.9-96.1-96.1V1010.2c0-52.2,43.9-96.1,96.1-96.1h2102.7
	c52.2,0,96.1,43.9,96.1,96.1v1383.5C3771.7,2443.1,3730.5,2487,3678.3,2487z"/>
<path class="st6" d="M1509.8,2209.8V1037.6c0-38.4,30.2-68.6,68.6-68.6h2099.9c38.4,0,68.6,30.2,68.6,68.6v1172.1
	c0,38.4-30.2,68.6-68.6,68.6H1575.6C1540,2278.4,1509.8,2248.2,1509.8,2209.8z"/>
<path class="st10" d="M3068.9,2692.9h-886.6c-57.6,0-107.1,46.7-107.1,107.1H3176C3176,2742.3,3129.3,2692.9,3068.9,2692.9z"/>
<path class="st6" d="M3338,2843.9c-189.4-181.2-194.9-488.6-85.1-494.1s211.4,230.6,151,505.1L3338,2843.9z"/>
<path class="st7" d="M3239.1,2714.8c24.7,46.7,57.6,90.6,96.1,129c13.7,2.7,27.5,5.5,38.4,5.5c-43.9-167.4-87.8-334.9-131.8-499.6
	C3165,2363.5,3151.3,2550.1,3239.1,2714.8z"/>
<path class="st6" d="M1669,2890.5c260.8-186.7,321.2-551.8,189.4-581.9c-131.8-27.5-296.5,241.6-269,581.9H1669z"/>
<path class="st7" d="M1809,2750.5c-38.4,52.2-85.1,98.8-140,137.3c-16.5,0-32.9,0-49.4,0c82.4-192.2,164.7-387,247.1-579.2
	C1960,2344.3,1943.5,2569.4,1809,2750.5z"/>
<path class="st11" d="M4271.3,2950.9h-3865c-30.2,0-52.2-24.7-52.2-52.2v-43.9c0-30.2,24.7-52.2,52.2-52.2h3865
	c30.2,0,52.2,24.7,52.2,52.2v43.9C4326.2,2926.2,4301.5,2950.9,4271.3,2950.9z"/>
<path class="st12" d="M1276.4,1498.8c71.4,0,120.8-27.5,120.8-35.7s5.5-54.9,8.2-57.6c2.7-5.5,27.5-5.5,30.2-8.2s5.5-11,5.5-11
	c5.5,0,13.7,8.2,8.2,19.2c-5.5,8.2-16.5,16.5-16.5,16.5l-2.7,65.9c2.7,32.9-98.8,109.8-151,115.3
	C1240.8,1589.4,1276.4,1498.8,1276.4,1498.8z"/>
<path class="st13" d="M1246.2,1498.8c5.5-16.5,30.2-27.5,43.9,0c16.5,27.5,24.7,87.8,5.5,104.3c-16.5,16.5-35.7,0-38.4-8.2
	C1254.5,1589.4,1246.2,1498.8,1246.2,1498.8z"/>
<path class="st14" d="M1054.1,1402.7c60.4,27.5,115.3,101.6,211.4,96.1c35.7,43.9,22,87.8,5.5,104.3c-52.2,24.7-162,2.7-214.1-32.9
	C1012.9,1542.7,996.4,1482.3,1054.1,1402.7z"/>
<path class="st12" d="M782.3,2673.7l11,60.4c-13.7,32.9-8.2,76.9-8.2,76.9h252.5c-27.5-52.2-145.5-54.9-159.2-79.6
	s-16.5-96.1-16.5-96.1L782.3,2673.7z"/>
<path class="st15" d="M840,2736.8c0-8.2,5.5-41.2,30.2-49.4c2.7,16.5,5.5,35.7,11,43.9c13.7,24.7,131.8,27.5,159.2,79.6H787.8
	c0,0-5.5-43.9,8.2-76.9C793.3,2734.1,840,2753.3,840,2736.8z"/>
<path class="st16" d="M1032.1,2802.7c2.7,2.7,5.5,5.5,5.5,11H785.1c0,0,0-2.7,0-11H1032.1z"/>
<path class="st16" d="M861.9,2745L861.9,2745c0,0,5.5-11,13.7-13.7c2.7,0,5.5,0,11,0h2.7v-2.7c-5.5-2.7-8.2-2.7-11,0
	C864.7,2731.3,861.9,2742.3,861.9,2745C859.2,2742.3,861.9,2745,861.9,2745L861.9,2745z"/>
<path class="st16" d="M886.6,2761.5L886.6,2761.5c0,0,5.5-11,13.7-13.7c2.7,0,5.5,0,11,0h2.7v-2.7c-5.5-2.7-8.2-2.7-11,0
	C889.4,2747.8,883.9,2758.8,886.6,2761.5C883.9,2761.5,883.9,2761.5,886.6,2761.5L886.6,2761.5z"/>
<path class="st16" d="M925.1,2772.5L925.1,2772.5c0,0,5.5-11,13.7-13.7c2.7,0,5.5,0,11,0h2.7v-2.7c-5.5-2.7-8.2-2.7-11,0
	C927.8,2758.8,922.3,2769.7,925.1,2772.5C922.3,2772.5,922.3,2772.5,925.1,2772.5L925.1,2772.5z"/>
<path class="st12" d="M1087,2673.7l11,60.4c-13.7,32.9-8.2,76.9-8.2,76.9h252.5c-27.5-52.2-145.5-54.9-159.2-79.6
	c-13.7-24.7-19.2-96.1-19.2-96.1L1087,2673.7z"/>
<path class="st15" d="M1141.9,2736.8c0-8.2,5.5-41.2,30.2-49.4c2.7,16.5,5.5,35.7,11,43.9c13.7,24.7,131.8,27.5,159.2,79.6h-252.5
	c0,0-5.5-43.9,8.2-76.9C1095.3,2734.1,1141.9,2753.3,1141.9,2736.8z"/>
<path class="st16" d="M1334.1,2802.7c2.7,2.7,5.5,5.5,5.5,11H1087c0,0,0-2.7,0-11H1334.1z"/>
<path class="st16" d="M1163.9,2745C1166.6,2745,1166.6,2745,1163.9,2745c0,0,5.5-11,13.7-13.7c2.7,0,5.5,0,11,0h2.7v-2.7
	c-5.5-2.7-8.2-2.7-11,0C1166.6,2731.3,1163.9,2742.3,1163.9,2745C1163.9,2742.3,1163.9,2745,1163.9,2745L1163.9,2745z"/>
<path class="st16" d="M1188.6,2761.5C1188.6,2761.5,1191.3,2761.5,1188.6,2761.5c0,0,5.5-11,13.7-13.7c2.7,0,5.5,0,11,0h2.7v-2.7
	c-5.5-2.7-8.2-2.7-11,0C1191.3,2747.8,1188.6,2758.8,1188.6,2761.5C1185.9,2758.8,1188.6,2761.5,1188.6,2761.5L1188.6,2761.5z"/>
<path class="st16" d="M1227,2772.5C1229.8,2772.5,1229.8,2772.5,1227,2772.5c0,0,5.5-11,13.7-13.7c2.7,0,5.5,0,11,0h2.7v-2.7
	c-5.5-2.7-8.2-2.7-11,0C1229.8,2758.8,1227,2769.7,1227,2772.5L1227,2772.5L1227,2772.5z"/>
<path class="st17" d="M1199.6,2725.8h-126.3l-101.6-455.7l-57.6,455.7h-129c-2.7-186.7-68.6-752.1-5.5-925.1h337.6
	C1158.4,2190.5,1199.6,2725.8,1199.6,2725.8z"/>
<path class="st13" d="M1120,1800.7c-112.5,0-225.1,0-337.6,0c-16.5-208.6,22-384.3,22-384.3c30.2-24.7,68.6-27.5,68.6-27.5
	c35.7,0,68.6-2.7,104.3-2.7c41.2,2.7,79.6,19.2,79.6,19.2C1067.8,1427.4,1100.8,1597.6,1120,1800.7z"/>
<rect x="774.1" y="1789.8" class="st15" width="348.6" height="22"/>
<path class="st12" d="M705.5,1690.9c8.2,41.2,74.1,104.3,79.6,104.3c5.5,0,24.7-19.2,38.4-16.5s46.7,30.2,38.4,38.4
	c-8.2,5.5-24.7-16.5-35.7-16.5c27.5,22,35.7,41.2,27.5,43.9c-5.5,2.7-11,2.7-11,2.7c-11,5.5-30.2-5.5-41.2-8.2
	c-11-2.7-35.7,8.2-54.9,5.5c-19.2-2.7-24.7-24.7-27.5-24.7c-2.7-2.7-137.3-101.6-131.8-156.5c5.5-54.9,98.8-85.1,98.8-85.1
	L705.5,1690.9z"/>
<path class="st13" d="M658.8,1578.4c-16.5-11-35.7,11-38.4,27.5c-2.7,16.5,74.1,96.1,93.3,93.3c19.2,0,30.2-19.2,13.7-35.7
	C713.7,1647,658.8,1578.4,658.8,1578.4z"/>
<path class="st14" d="M815.3,1408.2c38.4,41.2,19.2,192.2-19.2,211.4c-38.4,19.2-74.1,60.4-74.1,60.4c-22-8.2-79.6-68.6-74.1-93.3
	C700,1540,754.9,1413.7,815.3,1408.2z"/>
<path class="st15" d="M1023.9,1196.8c0,22-19.2,41.2-41.2,41.2c-22,0-41.2-19.2-41.2-41.2s19.2-41.2,41.2-41.2
	C1007.4,1155.7,1023.9,1174.9,1023.9,1196.8z"/>
<path class="st15" d="M1010.2,1251.7c-5.5,5.5-19.2,5.5-24.7,0s-5.5-19.2,0-24.7s19.2-5.5,24.7,0
	C1018.4,1235.3,1018.4,1246.2,1010.2,1251.7z"/>
<path class="st15" d="M1001.9,1240.8c0-32.9-19.2-54.9-76.9-49.4s-52.2,68.6-43.9,101.6c8.2,30.2,24.7,52.2,24.7,52.2L1001.9,1240.8
	z"/>
<path class="st12" d="M969,1216c13.7-5.5,27.5,2.7,30.2,19.2c2.7,13.7,0,35.7,0,54.9c-2.7,41.2,0,68.6-32.9,74.1
	c0,13.7,0,19.2,16.5,19.2c2.7,22-74.1,24.7-98.8,2.7c22-11,16.5-71.4,16.5-71.4l-2.7-24.7c11,8.2,16.5-5.5,16.5-16.5
	c-2.7-8.2-2.7-30.2-2.7-30.2c22-2.7,19.2-41.2,19.2-41.2C938.8,1229.8,966.3,1218.8,969,1216z"/>
<path class="st18" d="M905.9,1295.7c0,8.2-5.5,13.7-13.7,13.7c-8.2,0-13.7-5.5-13.7-13.7c0-8.2,5.5-13.7,13.7-13.7
	C897.6,1281.9,905.9,1287.4,905.9,1295.7z"/>
<path class="st19" d="M960.8,1364.3c-41.2-8.2-54.9-43.9-54.9-43.9C916.8,1369.8,955.3,1413.7,960.8,1364.3z"/>
<path class="st15" d="M3425.8,296.5c-32.9,0-43.9,38.4-38.4,54.9c8.2,16.5,11,30.2,0,57.6c-11,30.2,11,68.6,68.6,79.6
	c79.6,13.7,167.4-35.7,183.9-82.4c16.5-46.7-16.5-87.8-54.9-68.6c-38.4,19.2-82.4-19.2-82.4-19.2L3425.8,296.5z"/>
<path class="st12" d="M3063.5,428.2c0-13.7,0-30.2,0-30.2c-2.7,0-11,5.5-11,13.7s-5.5,19.2-13.7,8.2c-8.2-11-38.4-38.4-43.9-32.9
	s30.2,32.9,22,30.2c-8.2-2.7-30.2-19.2-35.7-16.5c-5.5,0-8.2,5.5-5.5,8.2c-5.5,5.5-2.7,13.7,0,16.5c2.7,2.7,16.5,16.5,11,13.7
	c-2.7,0-16.5-8.2-16.5-2.7c0,5.5,16.5,16.5,30.2,30.2c13.7,11,32.9,13.7,43.9,19.2c2.7,0,8.2,2.7,11,5.5l16.5-27.5
	C3052.5,450.2,3063.5,442,3063.5,428.2z"/>
<path class="st12" d="M3873.2,425.5c-2.7-13.7-2.7-30.2-2.7-30.2c2.7,0,11,5.5,13.7,11c2.7,5.5,8.2,19.2,13.7,5.5
	s32.9-43.9,38.4-38.4c5.5,5.5-24.7,35.7-16.5,32.9c8.2-2.7,27.5-22,32.9-22s8.2,2.7,5.5,8.2c5.5,5.5,5.5,13.7,2.7,16.5
	c-2.7,2.7-13.7,16.5-8.2,16.5c2.7,0,13.7-11,16.5-5.5c2.7,5.5-13.7,19.2-27.5,32.9c-11,11-30.2,19.2-41.2,24.7
	c-2.7,2.7-8.2,5.5-8.2,8.2l-19.2-24.7C3884.2,444.7,3876,439.2,3873.2,425.5z"/>
<path class="st20" d="M3379.1,469.4c-98.8,49.4-219.6,68.6-307.4-16.5l-35.7,38.4c76.9,96.1,307.4,233.3,417.2,93.3
	C3423.1,483.1,3379.1,469.4,3379.1,469.4z"/>
<path class="st4" d="M3379.1,469.4c0,0,30.2-13.7,57.6-13.7c24.7,0,49.4,0,74.1,2.7c0,0,27.5,2.7,49.4,19.2c0,0,5.5,24.7,5.5,63.1
	c0,65.9-11,129-30.2,192.2c-54.9,0-109.8,0-164.7,2.7c0-2.7,0-2.7,0-5.5c5.5-57.6-32.9-104.3-35.7-131.8
	C3332.5,568.2,3359.9,524.3,3379.1,469.4z"/>
<path class="st15" d="M3472.5,409c30.2,5.5,49.4-24.7,41.2-46.7c2.7-46.7-16.5-93.3-87.8-68.6c-35.7,5.5-49.4,49.4-19.2,63.1
	C3445,392.5,3472.5,409,3472.5,409z"/>
<path class="st12" d="M3445,428.2c2.7,13.7,2.7,24.7-16.5,27.5c-22,32.9-11,63.1-2.7,65.9c24.7,8.2,87.8-57.6,87.8-63.1
	c0,0-16.5-5.5-22-13.7c-5.5-11-8.2-35.7-5.5-68.6c-13.7,2.7-19.2-8.2-19.2-24.7c0-19.2-8.2-46.7-43.9-43.9
	c-13.7,16.5-19.2,27.5-19.2,46.7c0,22,0,35.7,0,46.7C3409.3,409,3420.3,428.2,3445,428.2z"/>
<circle class="st12" cx="3494.4" cy="381.6" r="11"/>
<path class="st15" d="M3423.1,304.7c2.7,30.2,43.9,32.9,52.2,32.9C3483.4,337.6,3464.2,293.7,3423.1,304.7z"/>
<path class="st20" d="M3565.8,617.6c-60.4-52.2-13.7-142.7-13.7-142.7c52.2,8.2,107.1,79.6,164.7,65.9
	c85.1-19.2,153.7-90.6,153.7-90.6l24.7,38.4C3867.8,606.7,3705.8,719.2,3565.8,617.6z"/>
<circle class="st15" cx="3571.3" cy="345.9" r="22"/>
<path class="st12" d="M3225.4,1427.4c-5.5-11-11-30.2-8.2-60.4c2.7-11,2.7-24.7,5.5-41.2c0-8.2,2.7-16.5,2.7-24.7l-52.2,13.7
	c0,8.2,2.7,19.2,2.7,24.7c2.7,16.5,0,32.9-2.7,52.2c0,5.5-2.7,8.2-2.7,11c-2.7,8.2-32.9,38.4-46.7,63.1c0,2.7-32.9,8.2-27.5,13.7
	c2.7,2.7,57.6,5.5,63.1,0c5.5-5.5,19.2-19.2,35.7-24.7v24.7h22c0,0,2.7-22,2.7-30.2C3222.7,1446.6,3230.9,1435.7,3225.4,1427.4z"/>
<path class="st15" d="M3123.8,1465.8c11,0,19.2,2.7,24.7,2.7c5.5-2.7,38.4-43.9,74.1-52.2c2.7,5.5,2.7,8.2,5.5,11
	c5.5,11-2.7,22-2.7,27.5c0,8.2-2.7,30.2-2.7,30.2h-22v-24.7c-16.5,2.7-30.2,16.5-35.7,24.7c-5.5,5.5-60.4,2.7-63.1,0
	C3090.9,1474.1,3121.1,1471.3,3123.8,1465.8z"/>
<path class="st12" d="M3189.7,1092.5c-8.2-8.2-19.2-27.5-24.7-54.9c-2.7-11-2.7-24.7-5.5-41.2c0-8.2-2.7-16.5-2.7-24.7l-46.7,27.5
	c2.7,8.2,5.5,16.5,11,24.7c5.5,16.5,11,32.9,13.7,49.4c0,5.5,0,8.2,0,11c-2.7,8.2-22,43.9-27.5,74.1c0,2.7-27.5,16.5-22,22
	c2.7,0,54.9-11,60.4-16.5c5.5-8.2,13.7-24.7,27.5-32.9l8.2,24.7l22-5.5c0,0-2.7-22-5.5-30.2
	C3192.5,1111.7,3198,1100.8,3189.7,1092.5z"/>
<path class="st15" d="M3101.9,1158.4c11-2.7,19.2-2.7,24.7-5.5c5.5-2.7,24.7-52.2,57.6-71.4c2.7,2.7,5.5,8.2,8.2,8.2
	c8.2,8.2,2.7,22,5.5,27.5c0,8.2,5.5,30.2,5.5,30.2l-22,5.5l-8.2-24.7c-13.7,8.2-24.7,24.7-27.5,32.9c-5.5,8.2-57.6,19.2-60.4,16.5
	C3074.4,1174.9,3101.9,1163.9,3101.9,1158.4z"/>
<path class="st21" d="M3368.2,735.7c0,0-16.5,41.2-24.7,41.2s-164.7-129-219.6-123.5c-54.9,5.5-76.9,68.6-63.1,145.5
	c13.7,79.6,52.2,285.5,52.2,285.5l109.8-30.2c0,0-52.2-236.1-38.4-230.6c13.7,8.2,123.5,96.1,123.5,96.1l159.2-22l-8.2-145.5
	l-38.4-16.5L3368.2,735.7z"/>
<path class="st22" d="M3535.6,738.4c0,0,57.6,101.6,24.7,175.7c-30.2,74.1-225.1,85.1-241.6,129c-19.2,43.9-74.1,340.4-74.1,340.4
	h-126.3c0,0,22-315.7,68.6-400.8s181.2-148.2,200.4-162c19.2-13.7,38.4-87.8,38.4-87.8L3535.6,738.4z"/>
<rect x="3362.7" y="724.7" class="st15" width="172.9" height="13.7"/>
<rect x="3467" y="721.9" class="st17" width="5.5" height="19.2"/>
<rect x="3379.1" y="721.9" class="st17" width="5.5" height="19.2"/>
<rect x="3513.6" y="721.9" class="st17" width="5.5" height="19.2"/>
<path class="st4" d="M1185.9,650.6H746.6c-22,0-38.4,16.5-38.4,38.4v203.1c-30.2,35.7-71.4,41.2-96.1,41.2
	c41.2,16.5,74.1,24.7,96.1,30.2v41.2c0,22,16.5,38.4,38.4,38.4h439.2c22,0,38.4-16.5,38.4-38.4V686.3
	C1224.3,667,1207.8,650.6,1185.9,650.6z"/>
<path class="st6" d="M927.8,749.4h-151c-8.2,0-13.7-5.5-13.7-13.7V711c0-8.2,5.5-13.7,13.7-13.7h151c8.2,0,13.7,5.5,13.7,13.7v24.7
	C941.5,743.9,936.1,749.4,927.8,749.4z"/>
<path class="st6" d="M1081.5,864.7h-302c-8.2,0-13.7-5.5-13.7-13.7v-24.7c0-8.2,5.5-13.7,13.7-13.7h304.7c8.2,0,13.7,5.5,13.7,13.7
	V851C1095.3,859.2,1089.8,864.7,1081.5,864.7z"/>
<path class="st6" d="M1081.5,982.7h-302c-8.2,0-13.7-5.5-13.7-13.7v-24.7c0-8.2,5.5-13.7,13.7-13.7h304.7c8.2,0,13.7,5.5,13.7,13.7
	V969C1095.3,974.5,1089.8,982.7,1081.5,982.7z"/>
<path class="st23" d="M1021.2,878.4h285.5c13.7,0,24.7,11,24.7,24.7v131.8c19.2,22,46.7,27.5,63.1,27.5
	c-27.5,11-49.4,16.5-63.1,19.2v27.5c0,13.7-11,24.7-24.7,24.7h-285.5c-13.7,0-24.7-11-24.7-24.7V903.1
	C996.4,889.4,1007.4,878.4,1021.2,878.4z"/>
<path class="st21" d="M1098,1007.4c0,13.7-11,24.7-24.7,24.7c-13.7,0-24.7-11-24.7-24.7s11-24.7,24.7-24.7
	C1087,982.7,1098,993.7,1098,1007.4z"/>
<path class="st21" d="M1185.9,1007.4c0,13.7-11,24.7-24.7,24.7c-13.7,0-24.7-11-24.7-24.7s11-24.7,24.7-24.7
	C1174.9,982.7,1185.9,993.7,1185.9,1007.4z"/>
<circle class="st21" cx="1249" cy="1007.4" r="24.7"/>
<rect x="1685.5" y="1367" class="st4" width="107.1" height="428.2"/>
<rect x="1841.9" y="1454.9" class="st4" width="107.1" height="340.4"/>
<rect x="1995.6" y="1608.6" class="st4" width="107.1" height="183.9"/>
<rect x="2152.1" y="1298.4" class="st4" width="107.1" height="494.1"/>
<rect x="2305.8" y="1087" class="st4" width="107.1" height="708.2"/>
<rect x="2462.3" y="1317.6" class="st4" width="107.1" height="474.9"/>
<rect x="2618.8" y="1177.6" class="st4" width="107.1" height="617.6"/>
<rect x="2772.5" y="1427.4" class="st4" width="107.1" height="367.8"/>
<path class="st3" d="M3488.9,1773.3l79.6-85.1c96.1,96.1,115.3,247.1,43.9,367.8l-96.1-63.1
	C3557.6,1921.5,3543.8,1830.9,3488.9,1773.3z"/>
<path class="st4" d="M3255.6,2053.3c82.4,54.9,192.2,32.9,249.8-43.9l96.1,63.1c-93.3,131.8-274.5,167.4-411.8,76.9
	c-104.3-68.6-153.7-194.9-129-310.2l112.5,27.5C3162.3,1938,3192.5,2012.1,3255.6,2053.3z"/>
<path class="st22" d="M3354.4,1715.6c-60.4,0-118,30.2-153.7,82.4c-11,16.5-16.5,30.2-22,49.4l-112.5-27.5
	c8.2-30.2,22-57.6,38.4-85.1c60.4-90.6,159.2-137.3,258-134.5L3354.4,1715.6z"/>
<path class="st4" d="M3376.4,1715.6l5.5-115.3c46.7,5.5,93.3,19.2,137.3,49.4c11,8.2,22,16.5,32.9,24.7l-79.6,85.1
	c-5.5-5.5-11-8.2-16.5-13.7C3431.3,1729.4,3403.8,1721.1,3376.4,1715.6z"/>
<path class="st24" d="M2868.6,1951.7H1707.4c-13.7,0-24.7-11-24.7-24.7c0-13.7,11-24.7,24.7-24.7h1161.1c13.7,0,24.7,11,24.7,24.7
	C2893.3,1940.7,2882.3,1951.7,2868.6,1951.7z"/>
<path class="st24" d="M2868.6,2064.3H1707.4c-13.7,0-24.7-11-24.7-24.7s11-24.7,24.7-24.7h1161.1c13.7,0,24.7,11,24.7,24.7
	S2882.3,2064.3,2868.6,2064.3z"/>
<path class="st24" d="M2868.6,2176.8H1707.4c-13.7,0-24.7-11-24.7-24.7s11-24.7,24.7-24.7h1161.1c13.7,0,24.7,11,24.7,24.7
	S2882.3,2176.8,2868.6,2176.8z"/>
<polygon class="st22" points="3788.1,2731.3 3785.4,2775.2 3727.8,2778 3722.3,2725.8 "/>
<path class="st25" d="M3725,2758.8c-8.2,2.7-11,60.4,8.2,71.4c38.4,22,38.4,27.5,57.6,54.9c19.2,30.2,76.9,27.5,87.8-5.5
	c0,0,0-11-16.5-24.7c0,0-27.5-24.7-38.4-57.6c0,0,0-27.5-19.2-32.9c0,0-16.5-8.2-16.5,2.7C3788.1,2778,3730.5,2778,3725,2758.8z"/>
<polygon class="st22" points="3955.6,2720.3 3950.1,2764.2 3895.2,2767 3892.5,2717.6 "/>
<path class="st25" d="M3895.2,2747.8c-8.2,2.7-11,63.1,5.5,74.1c27.5,16.5,27.5-13.7,82.4,30.2c0,0,24.7,19.2,57.6,11
	c0,0,24.7-2.7,30.2-24.7c0,0,0-11-16.5-22c0,0-38.4-8.2-63.1-41.2c0,0-8.2-22-24.7-27.5c0,0-24.7-2.7-27.5,2.7
	C3939.1,2775.2,3892.5,2756,3895.2,2747.8z"/>
<path class="st22" d="M3963.8,2734.1c0,0-85.1,11-82.4-5.5c8.2-85.1-5.5-183.9,5.5-233.3c8.2-32.9-22-68.6-24.7-107.1l-54.9-291
	l167.4,5.5c8.2,65.9,35.7,238.8,19.2,384.3C3983,2550.1,3966.6,2654.4,3963.8,2734.1z"/>
<path class="st22" d="M3911.7,2736.8c-16.5,0-32.9-2.7-30.2-8.2c8.2-85.1-5.5-183.9,5.5-233.3c8.2-32.9-22-68.6-24.7-107.1
	l-35.7-189.4l76.9-11c0,0-5.5,178.4,16.5,269C3917.2,2459.5,3922.7,2621.5,3911.7,2736.8z"/>
<path class="st22" d="M3727.8,2097.2c-13.7,35.7-19.2,101.6,0,172.9c-2.7,57.6,16.5,142.7,16.5,197.6c0,41.2-30.2,170.2-32.9,269
	c24.7,8.2,60.4,8.2,90.6,2.7c13.7-104.3,32.9-162,49.4-255.3c11-52.2,16.5-123.5,27.5-175.7c8.2-46.7,16.5-60.4,46.7-96.1
	c22-27.5,49.4-76.9,46.7-109.8L3727.8,2097.2z"/>
<path class="st22" d="M3727.8,2097.2c-13.7,35.7-19.2,101.6,0,172.9c-2.7,57.6,16.5,142.7,16.5,197.6c0,41.2-30.2,170.2-32.9,269
	c8.2,2.7,19.2,5.5,30.2,5.5c11-79.6,49.4-277.2,49.4-277.2c2.7-24.7-13.7-214.1-13.7-214.1c-13.7-46.7-8.2-109.8,0-153.7H3727.8z"/>
<path class="st26" d="M3930.9,1680c0,0,46.7-8.2,82.4,85.1c30.2,79.6,22,137.3,22,137.3h-85.1L3930.9,1680z"/>
<path class="st26" d="M3908.9,1663.5c49.4,11,104.3,109.8,63.1,321.2c0,0-22,101.6-49.4,126.3l-87.8,13.7c0,0-107.1,0-123.5-24.7
	c-5.5-8.2-13.7-24.7-2.7-54.9c38.4-96.1,11-293.7,13.7-351.4c11-19.2,71.4-43.9,82.4-38.4L3908.9,1663.5z"/>
<path class="st27" d="M3763.4,1954.5c0,0,68.6,57.6,96.1,104.3l32.9,35.7l-96.1-82.4l-82.4-79.6l-24.7-107.1l46.7-79.6l22-63.1
	C3843,1756.8,3749.7,1869.4,3763.4,1954.5z"/>
<path class="st28" d="M3856.8,2116.4l35.7-32.9c2.7-2.7-8.2-5.5-11-8.2c-49.4-38.4-87.8-98.8-131.8-118c5.5-19.2,11-46.7,8.2-74.1
	l-79.6-2.7c-2.7,27.5,2.7,57.6,2.7,87.8C3722.3,2036.8,3818.3,2056,3856.8,2116.4z"/>
<path class="st26" d="M3757.9,1899.6c8.2-43.9,30.2-93.3,30.2-120.8c-2.7-98.8-38.4-109.8-71.4-90.6c-19.2,11-32.9,38.4-32.9,85.1
	c0,32.9-19.2,71.4-22,107.1C3694.8,1883.1,3738.7,1885.8,3757.9,1899.6z"/>
<path class="st29" d="M3939.1,1649.8c0,0-19.2,22-5.5,43.9c0,0-8.2,30.2-49.4,27.5c-22-2.7-79.6-38.4-76.9-68.6c0,0,11,0,11-5.5
	c0,0,8.2-32.9,0-68.6L3939.1,1649.8z"/>
<path class="st28" d="M3972.1,1570.2c0,0-11,46.7-16.5,68.6c0,0-8.2,19.2-46.7,35.7c-2.7,0-5.5,2.7-5.5,2.7c-8.2,0-22,2.7-60.4-35.7
	c0,0-16.5-19.2-22-35.7c0,0-35.7-82.4-19.2-107.1c0,0,32.9-49.4,93.3-38.4c0,0,71.4,0,76.9,35.7
	C3988.5,1531.7,3980.3,1545.5,3972.1,1570.2z"/>
<path class="st21" d="M4032.5,1518c0,0-27.5,0-43.9-11c0,0,13.7,0,27.5-19.2c-46.7,16.5-85.1-109.8-186.7-43.9
	c0-5.5,0-13.7,2.7-19.2c-11,11-19.2,22-22,32.9l-16.5-11l2.7,24.7c-41.2,22-8.2,90.6,5.5,118c2.7,22,13.7,32.9,22,43.9v-24.7
	c-13.7-11-30.2-57.6,0-41.2c2.7,16.5,2.7,16.5,8.2,32.9h2.7c0-11,0-19.2,2.7-24.7c2.7-2.7,16.5-13.7,11-32.9c0,0,32.9,11,46.7,13.7
	c0,0-11-19.2-11-22C3884.2,1518,3994,1603.1,4032.5,1518z"/>
<polygon class="st30" points="3788.1,2083.5 3832.1,2110.9 4125.8,2094.5 4081.9,2072.5 "/>
<path class="st31" d="M3788.1,2083.5l46.7,24.7v16.5l-43.9-27.5c-2.7-2.7-2.7-2.7-2.7-5.5L3788.1,2083.5z"/>
<path class="st32" d="M4125.8,2094.5l-293.7,16.5v16.5l285.5-13.7c5.5,0,8.2-5.5,8.2-8.2V2094.5z"/>
<path class="st31" d="M3889.7,1907.8l-65.9,197.6l8.2,5.5l76.9-214.1h-5.5C3897.9,1896.8,3892.5,1899.6,3889.7,1907.8z"/>
<path class="st33" d="M4172.4,1883.1l-266.3,11c-2.7,0-8.2,2.7-8.2,5.5l-68.6,208.6l296.5-16.5l57.6-197.6c0-2.7,0-5.5-2.7-8.2
	C4180.7,1885.8,4177.9,1883.1,4172.4,1883.1z"/>
<path class="st34" d="M4172.4,1885.8l-266.3,11c-2.7,0-5.5,2.7-8.2,5.5l-68.6,205.9l293.7-16.5l57.6-197.6c0-2.7,0-5.5-2.7-8.2
	C4177.9,1885.8,4175.2,1885.8,4172.4,1885.8z"/>
<path class="st28" d="M3972.1,2083.5c0,0,0,22-8.2,30.2c0,0-24.7,11-32.9,19.2c-11,8.2-43.9-2.7-43.9-2.7s-11-5.5-5.5-13.7
	c2.7-2.7,11-5.5,13.7-5.5c35.7,11,27.5-22,35.7-27.5C3939.1,2078,3963.8,2069.8,3972.1,2083.5z"/>
</svg>
