<?xml version="1.0" encoding="UTF-8"?>
<svg id="Layer_1" xmlns="http://www.w3.org/2000/svg" version="1.1" xmlns:xlink="http://www.w3.org/1999/xlink" viewBox="0 0 7500 5000">
  <!-- Generator: Adobe Illustrator 30.0.0, SVG Export Plug-In . SVG Version: 2.1.1 Build 91)  -->
  <defs>
    <style>
      .st0 {
        fill: #f6af75;
      }

      .st1 {
        fill: #f9f9fa;
      }

      .st2 {
        fill: #004172;
      }

      .st3 {
        fill: #9fe1f7;
      }

      .st4 {
        fill: #fa2816;
      }

      .st5 {
        fill: #cc532e;
      }

      .st6 {
        fill: #052f56;
      }

      .st7 {
        fill: #003e6f;
      }

      .st8 {
        fill: #fdac72;
      }

      .st9 {
        fill: #fba871;
      }

      .st10 {
        fill: #d85a36;
      }

      .st11 {
        fill: #022d51;
      }

      .st12 {
        fill: #6a7e95;
      }

      .st13 {
        fill: #032e53;
      }

      .st14 {
        fill: #134465;
      }

      .st15 {
        fill: #febb39;
      }

      .st16 {
        fill: #ffba3b;
      }

      .st17 {
        fill: #e9f7fd;
      }

      .st18 {
        fill: none;
      }

      .st19 {
        fill: #004273;
      }

      .st20 {
        fill: #f17d55;
      }

      .st21 {
        fill: #f9fcfa;
      }

      .st22 {
        fill: #dc5c3c;
      }

      .st23 {
        fill: #071c3e;
      }

      .st24 {
        fill: #031522;
      }

      .st25 {
        fill: #fff9ee;
      }

      .st26 {
        fill: #fcaa6f;
      }

      .st27 {
        fill: #022f59;
      }

      .st28 {
        fill: #004071;
      }

      .st29 {
        fill: #fbab72;
      }

      .st30 {
        fill: #093358;
      }

      .st31 {
        fill: #fdfdf8;
      }

      .st32 {
        fill: #78bfdd;
      }

      .st33 {
        fill: #024678;
      }

      .st34 {
        fill: #ecf3f1;
      }

      .st35 {
        fill: #ffab72;
      }

      .st36 {
        fill: #1f254b;
      }

      .st37 {
        fill: #0b4067;
      }

      .st38 {
        fill: #feb839;
      }

      .st39 {
        fill: #164b6c;
      }

      .st40 {
        fill: #16374d;
      }

      .st41 {
        fill: #07233f;
      }

      .st42 {
        fill: #f5f5f1;
      }

      .st43 {
        fill: #319779;
      }

      .st44 {
        fill: #053157;
      }

      .st45 {
        fill: #0f3350;
      }

      .st46 {
        fill: #bb754c;
      }

      .st47 {
        fill: #083158;
      }

      .st48 {
        fill: #e6f8fc;
      }

      .st49 {
        fill: #003f72;
      }

      .st50 {
        fill: #fdfffb;
      }

      .st51 {
        fill: #032e56;
      }

      .st52 {
        fill: #2c9575;
      }

      .st53 {
        fill: #063057;
      }

      .st54 {
        fill: #ffac6e;
      }

      .st55 {
        clip-path: url(#clippath);
      }

      .st56 {
        fill: #052f54;
      }
    </style>
    <clipPath id="clippath">
      <path class="st18" d="M1693.44,1903.7v475.68h510.7v-475.68h-510.7ZM2087.29,1983.85l-1.16-1.3-103.41-44.23-4.02,1.76c.09-8.24.88-15.91,2.8-19.74.9-1.8,2.77-4.57,5.19-7.86l113.64,48.61c-4.01,8.63-8.73,16.5-13.03,22.77Z"/>
    </clipPath>
  </defs>
  <rect class="st3" width="7500" height="5000"/>
  <path class="st48" d="M1760.1,1138.81c0,23.63-3.9,46.23-11.11,67.09H690.94c-7.21-20.86-11.11-43.46-11.11-67.09,0-105.14,77.55-190.33,173.21-190.33,35.77,0,68.99,11.92,96.58,32.25,17.88-151.1,134.95-267.73,276.72-267.73s254.72,112.62,275.69,259.87c25.09-15.55,54.03-24.39,84.87-24.39,95.65,0,173.21,85.2,173.21,190.33Z"/>
  <path class="st48" d="M1365.94,2738.63c0,16.05-2.65,31.4-7.55,45.58h-718.76c-4.9-14.17-7.55-29.53-7.55-45.58,0-71.42,52.68-129.3,117.66-129.3,24.3,0,46.87,8.1,65.61,21.91,12.15-102.64,91.67-181.87,187.98-181.87s173.04,76.5,187.28,176.53c17.05-10.57,36.71-16.57,57.65-16.57,64.98,0,117.66,57.88,117.66,129.3Z"/>
  <path class="st48" d="M6175.5,1498.36c0,22.91-3.78,44.81-10.77,65.04h-1025.67c-6.99-20.23-10.77-42.13-10.77-65.04,0-101.92,75.18-184.51,167.91-184.51,34.67,0,66.88,11.56,93.62,31.26,17.34-146.47,130.82-259.53,268.25-259.53s246.92,109.17,267.25,251.91c24.32-15.08,52.38-23.64,82.27-23.64,92.73,0,167.91,82.59,167.91,184.51Z"/>
  <g>
    <g>
      <rect class="st43" x="3350.74" y="2171.05" width="122.12" height="540.3"/>
      <rect class="st43" x="3176.81" y="2289.47" width="122.12" height="421.87"/>
      <rect class="st43" x="3002.88" y="2400.49" width="122.12" height="310.86"/>
    </g>
    <g>
      <circle class="st22" cx="3733.76" cy="1651.11" r="265.83" transform="translate(-73.92 3123.76) rotate(-45)"/>
      <circle class="st42" cx="3733.76" cy="1651.11" r="205.39" transform="translate(-73.92 3123.76) rotate(-45)"/>
      <circle class="st10" cx="3733.76" cy="1651.11" r="140.01" transform="translate(-73.92 3123.76) rotate(-45)"/>
      <circle class="st42" cx="3733.76" cy="1651.11" r="69.7"/>
    </g>
    <g>
      <rect class="st28" x="2621.53" y="3327.48" width="193.2" height="57.69" rx="18.76" ry="18.76"/>
      <path class="st28" d="M2793.55,3422.64v.49c0,12.3-9.97,22.27-22.27,22.27h-2.16c-.38,10.89-4.95,20.75-12.13,27.94-7.51,7.54-17.92,12.19-29.4,12.19h-14.16c-22.46,0-40.78-17.84-41.54-40.13h-6.92c-12.32,0-22.29-9.97-22.29-22.27v-.49c0-12.32,9.97-22.29,22.29-22.29h106.31c12.3,0,22.27,9.97,22.27,22.29Z"/>
      <path class="st15" d="M2920.29,3025.15c0,50.94-14.85,109.16-48.7,144.85-48.68,51.32-78.48,157.47-78.48,157.47h-150.25s-26.81-103.08-78.48-157.47c-33.87-35.65-48.7-93.91-48.7-144.85,0-112.09,90.34-192.27,202.16-193.3h.27c111.82,1.03,202.16,81.21,202.16,193.3Z"/>
      <path class="st32" d="M2723.08,3145.22c-.7.03-1.38.03-2.08.03-.57,0-1.08-.03-1.59-.11,1.24.03,2.46.05,3.68.08Z"/>
      <g>
        <path class="st1" d="M2800.79,3071.77c-7.86-12.08-25.46-15.19-38.16-9.76-15.11,6.46-21.86,22.97-23.19,38.43-.84,10.05-1.32,20.19-1.68,30.35-6.57,1.05-13.21,1.51-19.46,1.62h-.59c-6.27-.11-12.92-.57-19.54-1.59-.35-10.16-.84-20.29-1.65-30.37-1.22-15.43-8.11-31.97-23.16-38.43-12.73-5.46-30.29-2.35-38.18,9.76-6.86,10.54-4.7,24.54-.32,35.59,8.08,20.48,25.08,32.16,44.59,38.24,2.65,60.61,3.54,181.87,3.54,181.87h18.92s-.03-103.53-2.35-155.22c-.32-7.43-.57-14.92-.78-22.38,5.19.73,10.4,1.16,15.54,1.38,1.24.03,2.46.05,3.68.08,1.22-.03,2.43-.05,3.68-.08,5.13-.22,10.35-.65,15.54-1.38-.22,7.49-.46,14.94-.78,22.38-2.3,51.7-2.32,155.22-2.32,155.22h18.92s.89-121.28,3.51-181.87c19.51-6.08,36.51-17.75,44.62-38.24,4.35-11.05,6.51-25.05-.35-35.59ZM2652.68,3101.17c-3.46-8.51-6.19-21.48,6.3-22.65,18.94-1.78,18.7,23.7,19.19,36.24.14,3.59.3,7.19.43,10.78-11.38-4.65-20.97-12.24-25.92-24.38ZM2783.96,3099.58c-4.76,12.97-14.67,21.02-26.54,25.89.14-3.57.27-7.13.41-10.7.49-12.19-.19-35.35,17-36.48,13.62-.86,12.43,12.3,9.13,21.29Z"/>
        <path class="st1" d="M2721.67,3151.25c-.51.08-1.03.11-1.59.11-.7,0-1.38,0-2.08-.03,1.22-.03,2.43-.05,3.68-.08Z"/>
      </g>
    </g>
    <g>
      <circle class="st37" cx="1730.59" cy="4585.94" r="249.2"/>
      <circle class="st17" cx="1730.59" cy="4585.94" r="216.53"/>
      <g>
        <path class="st37" d="M1855.79,4687.9l-13.35,14.48-103.74-95.56c-2.51.99-5.27,1.53-8.13,1.53-12.36,0-22.36-10.05-22.36-22.41,0-8.82,5.12-16.45,12.51-20.1v-134.82h19.7v134.82c7.44,3.6,12.56,11.28,12.56,20.1,0,2.22-.34,4.38-.94,6.4l103.74,95.56Z"/>
        <path class="st37" d="M1842.73,4709.45l-105.28-96.97c-2.23.58-4.54.87-6.88.87-15.09,0-27.37-12.3-27.37-27.42,0-9.27,4.82-17.99,12.51-23v-136.93h29.72v136.9c7.72,4.97,12.56,13.69,12.56,23.02,0,1.56-.14,3.13-.41,4.69l105.28,96.98-20.14,21.84ZM1739.79,4601.02l102.36,94.29,6.56-7.12-102.34-94.28.87-2.98c.49-1.67.74-3.35.74-5,0-6.61-3.82-12.73-9.73-15.59l-2.83-1.36v-132.96h-9.69v132.93l-2.79,1.38c-5.91,2.91-9.72,9.04-9.72,15.61,0,9.6,7.79,17.4,17.36,17.4,2.18,0,4.3-.4,6.3-1.18l2.91-1.14Z"/>
      </g>
    </g>
    <g>
      <g>
        <path class="st35" d="M2384.53,3966.64c.28.25.58.49.85.75,3.99,3.85,5.8,11.35,5.95,16.74.26,9.22-4.18,21.24-10.6,27.87-10.46,10.8-22.45,5.31-35.33,5.55-5.6,5.9-2.3,17.15-5.36,24.82-2.07,5.13-5.91,8.42-10.97,10.4-11.27,4.41-20.88,3.82-31.72-.83-.73,7.63-1.86,15.68-5.06,22.7-3.01,6.6-7.77,12.01-14.71,14.54-12.35,4.51-22.18-.33-33.11-5.55,2.13,7.85,1.6,18.43-2.21,25.72-3.18,6.08-9.39,9.9-15.84,11.75-14.09,4.05-24.94-1.34-36.92-7.89.27,1,.53,2,.66,3.03.78,6.17-1.85,12.94-5.53,17.77-3.95,5.18-9.53,10.59-16.31,11.28-14.12,1.46-87.39-74.63-126.63-116.59-7.19-7.69-36.72-49.42-84.7-78.92-51.3-31.54-121.25-50.78-129.4-53.39,5.09-5.08,90.7-189.83,91.49-201.04,7.64-.87,127.07,53.78,134.18,59.01.04.43.16,1.16.12,1.64-.56,6.93-10.63,26.87-15.54,31.7,14.71.26,29.51-1.46,44.19-.68,18.35.98,48.01,8.78,62.28,20.78l240.22,158.83Z"/>
        <path class="st7" d="M1971.22,3942.04c-2.92,6.45-4.81,14.44-11.89,17.12-5.59-6.57-121.98-53.91-136.85-58.59l.65-.64c9.52-9.27,95.04-192.63,95.8-203.98,12.73.04,122.09,50.51,136.84,59.58.87,6.15-73.55,162.26-84.55,186.51Z"/>
      </g>
      <g>
        <path class="st52" d="M2516.19,3940.86c-25.5,6.23-51.05,12.24-76.66,18.02-1.63.86-2.77.69-4.56.61-3.89-5.2-5.14-19.22-6.77-26.01-6.42-26.75-39.54-184.97-47.3-195.74,25.18-4.02,51.74-12.75,76.41-19.53,2.09-.16,4.22-.08,6.33-.09.79.77.89.76,1.54,1.9,4.98,8.68,10.84,46.61,14.05,59.81,12.07,49.98,26.4,100.14,36.57,150.52.77,3.78,1.22,6.66.41,10.51Z"/>
        <path class="st52" d="M2206.54,3780.27c19.19-2.51,100.06,11.79,121.86,17.56,16.89-4.63,35.86-10.73,51.73-18.09,1.04,1.21,1.96,2.52,2.58,4,6.45,15.06,8.55,35.26,12.39,51.33l16.72,70.88c2.73,11.69,6.25,23.75,8.01,35.59.38,2.51.07,4.58-.93,6.93-6.15,7.18-36.82,17.33-46.85,20.72-2.5-6.54-79.98-64.39-89.54-68.87-.08-.2-.13-.41-.24-.6-2.91-5.22-78.61-61.06-84.34-63.35-.61,2.51-1.52,3.7-3.25,5.55-13.17,14.13-28.29,26.35-42.12,39.81-13.16,12.81-26.19,29.82-41.33,40.04-5.17,3.49-11.56,6.41-17.93,4.88-5.79-1.39-11.16-6.68-13.95-11.78-2.79-5.11-3.62-11-1.58-16.55,3.41-9.29,87.77-90.68,100.99-101.34,8.78-7.07,17.31-12.51,27.78-16.72Z"/>
        <path class="st52" d="M2105.9,4019.91c3.77-.59,7.5-1.13,11.26-.14,2.99.8,4.57,2.23,6.16,4.81.96,4.45-.22,8.24-2.49,12.07-4.82,8.08-37.27,40.4-45.5,42.46-.85.34-1.58.48-2.49.51-3.72.15-7.29-.98-9.89-3.73-2.06-2.18-3.03-5.17-2.64-8.14,1.33-10.29,36.38-40.02,45.6-47.85Z"/>
        <path class="st52" d="M2077.09,3985.75c3.65-.25,7.91-.14,11.06,2.01,2.38,1.62,3.83,3.9,4.08,6.78.42,4.83-3.76,11-6.82,14.43-6.43,7.23-38.82,39.54-46.21,39.94-.19.01-.38.03-.57.03-3.31.07-8.12-1.6-10.45-4.04-1.3-1.37-1.94-3.59-1.82-5.47.74-10.96,40.77-45.75,50.75-53.68Z"/>
        <path class="st52" d="M2136.99,4051.79c3.37-.68,6.48-.95,9.91-.59,3.96.41,5.82,1.74,8.29,4.68.68,2.68.56,4.8-.32,7.43-3.06,9.04-34.38,39.96-43.73,44.65-1.29,1.03-2.5,1.32-4.13,1.51-2.95.34-5.92.15-8.23-1.9-2.24-1.99-3.46-4.59-3.54-7.58-.35-14.45,31.34-37.15,41.76-48.18Z"/>
        <path class="st52" d="M2045.11,3953.87c3.8-.49,6.81-.37,10.46.9,2.76.96,5.16,2.31,6.23,5.17,1.18,3.18-.32,7.25-1.79,10.12-4.78,9.29-44.07,46.7-53.55,49.86-1.12.21-2.03.3-3.17.28-3.36-.08-5.41-1.26-7.61-3.75-2.06-2.32-3.44-5.16-3.1-8.33.35-3.35,2.35-6.55,4.44-9.11,4.99-6.08,11.81-10.79,17.53-16.19,10.12-9.57,19.46-20.49,30.54-28.95Z"/>
      </g>
    </g>
    <path class="st7" d="M4506.59,1023.83l-120.36,177.64h-803.32l119.38-177.64h-133.2L875,5000h1092.92L4639.79,1023.83h-133.2ZM1870.46,4914.45h-782.57l441.5-657.03h786.23l-445.17,657.03ZM2373.58,4171.88h-786.67l441.5-657.08h790.38l-445.21,657.08ZM2876.76,3429.3h-790.87l441.55-657.08h794.53l-445.22,657.08ZM3379.93,2686.67h-795.02l441.55-657.08h798.68l-445.21,657.08ZM3883.06,1944.09h-799.17l441.55-657.08h802.83l-445.21,657.08Z"/>
    <g>
      <path class="st16" d="M4328.26,1156.69l-200.16-137.36c-23.2-15.92-53.39-17.43-78.06-3.91l-212.89,116.68c-16.12,8.84-34.87-6.27-29.66-23.9l68.79-232.81c7.97-26.99.08-56.16-20.4-75.45l-176.75-166.41c-13.39-12.6-4.81-35.1,13.57-35.59l242.68-6.52c28.13-.76,53.44-17.28,65.45-42.72l103.65-219.52c7.85-16.63,31.89-15.42,38.04,1.91l81.19,228.78c9.41,26.52,32.94,45.48,60.86,49.05l240.81,30.74c18.24,2.33,24.52,25.57,9.94,36.77l-192.49,147.92c-22.31,17.15-33.08,45.39-27.84,73.03l45.18,238.52c3.42,18.06-16.74,31.22-31.9,20.82Z"/>
      <path class="st38" d="M3824.93,522.93c-1.59,0-3.2-.39-4.69-1.21l-112.26-61.68c-4.73-2.6-6.46-8.54-3.86-13.26,2.59-4.73,8.52-6.46,13.26-3.86l112.26,61.68c4.73,2.6,6.46,8.54,3.86,13.26-1.78,3.24-5.12,5.07-8.57,5.07Z"/>
      <path class="st38" d="M3929.8,397.1c-3.66,0-7.18-2.07-8.84-5.61l-39.47-83.88c-2.3-4.88-.2-10.7,4.68-12.99,4.88-2.29,10.7-.2,12.99,4.68l39.47,83.88c2.3,4.88.2,10.7-4.68,12.99-1.34.63-2.76.93-4.15.93Z"/>
      <path class="st38" d="M4279.43,409.44c-1.72,0-3.45-.45-5.03-1.4-4.62-2.78-6.11-8.78-3.33-13.4l54.96-91.28c2.79-4.62,8.8-6.11,13.4-3.33,4.62,2.78,6.11,8.78,3.33,13.4l-54.96,91.28c-1.84,3.04-5.06,4.73-8.38,4.73Z"/>
      <path class="st38" d="M4393.62,522.93c-3.3,0-6.53-1.68-8.36-4.71-2.79-4.61-1.32-10.62,3.3-13.41l93.75-56.74c4.61-2.79,10.62-1.32,13.41,3.3,2.79,4.61,1.32,10.62-3.3,13.41l-93.75,56.74c-1.58.96-3.32,1.41-5.04,1.41Z"/>
      <path class="st38" d="M4556.44,885.59c-.86,0-1.74-.11-2.61-.36l-115.96-32.07c-5.2-1.44-8.24-6.82-6.81-12.02,1.44-5.2,6.82-8.25,12.02-6.81l115.96,32.07c5.2,1.44,8.24,6.82,6.81,12.02-1.2,4.33-5.13,7.16-9.41,7.16Z"/>
      <path class="st38" d="M3643.61,880.66c-4.01,0-7.78-2.5-9.2-6.5-1.81-5.08.85-10.66,5.93-12.47l111.02-39.47c5.08-1.81,10.66.84,12.47,5.93,1.81,5.08-.85,10.66-5.93,12.47l-111.02,39.47c-1.08.39-2.19.57-3.27.57Z"/>
    </g>
  </g>
  <g>
    <path class="st54" d="M2632.81,1195.47v-27.29l-12.03-199.84,181.33-39.15s28.68,30.76,36.08,84.45c7.4,53.69,39.78,55.54,32.38,70.34-7.4,14.8-21.28,3.7-24.05,12.95-2.78,9.25-5.55,59.21-7.4,87.89-1.85,28.68-22.2,50.88-49.96,46.26-27.75-4.63-37.76,5.55-42.94,21.28-5.17,15.73-8.56,34.23-8.56,34.23l-25.29,13.88-79.56-105.01Z"/>
    <path class="st44" d="M2658.72,874.9c41.53-10.38,73.09,2.78,107.32-12.95,34.23-15.73,64.76-10.18,61.06,25.9-3.7,36.08-45.33,53.66-62.91,70.31-17.58,16.65,3.7,33.31-7.4,65.69-11.1,32.38-21.28,46.26-29.61,24.05-8.33-22.2-37.31-33.31-49.65-11.1-12.34,22.2-5.86,65.69,7.09,74.94,12.95,9.25-2.78,49.03-25.9,58.29-23.13,9.25-57.36,4.63-84.19-61.06-26.83-65.69-31.46-131.37-10.18-173.01,21.28-41.63,46.26-49.03,94.37-61.06Z"/>
    <path class="st13" d="M2012.34,3061.68l61.68,56.74,27.14-28.37s24.67,70.31,96.22,87.58c71.55,17.27,143.06,17.44,143.09,0,.06-35.77-46.93-21.54-86.4-56.38-39.47-34.85-51.7-99.04-77.63-118.78-25.93-19.74-92.55-64.14-92.55-64.14l-71.55,123.36Z"/>
    <path class="st21" d="M2605.06,1205.18l53.66,367.6,70.31-14.8,20.97-224.51-12.34-46.88s-9.56,10.18-20.66-3.7c-11.1-13.88-74.94-86.04-84.19-87.43-9.25-1.39-27.75,9.71-27.75,9.71Z"/>
    <path class="st51" d="M2620.48,2493.01l-48.11,129.52,83.88,32.07,16.04-22.2s53.04,35.77,93.75,44.41c40.71,8.63,64.14,0,88.82-12.34,24.67-12.34,20.97-44.41-13.57-39.47-34.54,4.93-96.22-40.71-128.29-83.88-32.07-43.17-92.52-48.11-92.52-48.11Z"/>
    <path class="st19" d="M2727.46,2558.59s160.69-259.25,228.54-398.64c67.85-139.39,29.61-161.6-46.87-193.67-76.48-32.07-241.78-75.25-241.78-75.25l-9.87-101.15s87.58-149.26,92.52-209.7c0,0,22.2-169,0-246.71,0,0-18.5,183.8-35.77,209.7,0,0,12.95-104.85,15.73-169.61,0,0,17.58-27.76-3.7-60.14,0,0-25.9,18.5-25.9,25.9s15.73,30.53,11.1,43.48c-4.63,12.95-24.98,150.8-35.16,158.2-10.18,7.4-10.18-118.42-25.9-200.76-15.73-82.34-21.28-115.65-45.33-135.07,0,0-20.35,22.2-65.69,31.46-45.33,9.25-78.64,11.1-200.76,107.32-122.12,96.22-197.99,149.88-221.11,211.86-23.13,61.99-106.39,283.1-106.39,283.1l111.94,42.97s99.92-219.67,117.5-252.98c17.58-33.31,51.81-57.36,148.03-113.8,0,0,15.73,45.33-33.31,159.13-49.03,113.8-150.8,305.3-138.77,318.26,12.03,12.95,54.89,14.49,56.13,25.6,1.23,11.1-8.63,226.97-11.1,323.19-2.47,96.22-8.69,123.77-28.42,158.72,0,0-181.1,358.59-156.61,419.82l7.4,18.5,92.55,64.14s45.61-81.41,159.1-299.75c113.49-218.34,115.37-315.79,165.62-594.57,0,0,198.12,33.31,278.92,21.59,0,0-57.21,88.2-97.3,186.27-40.09,98.07-62.29,177.01-62.29,177.01l106.99,65.58Z"/>
    <path class="st51" d="M2625.56,1660.18c-3.33,0-6.34-2.28-7.13-5.66-6.08-26.09-59.4-255.48-59.4-274.28,0-14.66,17.64-22.51,34.16-26.65l-27.37-12.32c-2.98-1.34-4.71-4.48-4.24-7.71,2.87-20.11-8.65-75.26-13.33-94.82-.94-3.93,1.49-7.89,5.42-8.83,3.91-.94,7.88,1.48,8.83,5.42.67,2.79,15.39,64.74,14.08,94.72l44.61,20.07c3.03,1.36,4.76,4.59,4.22,7.87-.54,3.28-3.22,5.78-6.53,6.1-23.22,2.23-45.18,10.08-45.18,16.15,0,12.96,35.3,169.14,59.02,270.95.92,3.94-1.53,7.88-5.47,8.8-.56.13-1.12.19-1.67.19Z"/>
    <path class="st49" d="M3162.01,1512.34l22.2,130.76s-164.06,28.37-245.48,35.77c-81.41,7.4-188.73-98.68-188.73-98.68v-246.71s104.85,138.53,150.49,172.88c45.64,34.35,37.01,30.65,123.36,19.55,86.35-11.1,138.16-13.57,138.16-13.57Z"/>
    <path class="st51" d="M2785.6,1611.24s35.88-150.65-25.76-186.45l-9.83-6.2v161.6l35.6,31.06Z"/>
    <path class="st51" d="M2624.17,1804.61c-3.86,0-7.09-3.02-7.3-6.92-.27-4.91-2.07-48.51,18.55-66.39,16.62-14.41,32.32-28.01,37.02-60.88,5.14-35.94,51.19-99.29,53.15-101.97,2.39-3.26,6.97-3.98,10.23-1.59,3.27,2.39,3.98,6.97,1.59,10.23-.46.63-45.85,63.07-50.47,95.4-5.47,38.28-24,54.34-41.93,69.88-12.91,11.19-14.14,43.14-13.52,54.51.22,4.04-2.87,7.49-6.91,7.71-.14,0-.27.01-.41.01Z"/>
    <path class="st51" d="M2473.68,1894.61c-1.52,0-3.07-.29-4.57-.89l-128.29-51.81c-6.25-2.52-9.27-9.64-6.75-15.89,2.52-6.25,9.64-9.27,15.89-6.75l128.29,51.81c6.25,2.52,9.27,9.64,6.75,15.89-1.92,4.75-6.49,7.64-11.32,7.64Z"/>
    <path class="st11" d="M2272.18,2046.38l213.67,149.11,15.3-87.34,49.35,7.5s49.01-166.63,46.54-233.24c-2.47-66.61-23.68,96.08-88.39,153.35-60.87,53.88-236.04-17.66-236.04-17.66l-.43,28.28Z"/>
    <path class="st11" d="M2390.05,1522.33s59.58-38.37,83.64-43.92c24.05-5.55-86.36,100.94-91.69,119.71l8.05-75.79Z"/>
    <path class="st34" d="M2011.1,1838.92s-6.17,26.21,0,33.61c6.17,7.4,94.98,43.17,101.15,40.71,6.17-2.47,5.45-33.41,5.45-33.41l-106.6-40.92Z"/>
    <path class="st9" d="M3195,1521.9s40.71-30.22,67.23-41.02c26.52-10.79,42.56-19.43,61.99-12.64,19.43,6.78,9.25,30.07-4.01,37.86-13.26,7.79-32.07,13.64-34.54,17.96s-9.25,19.74-1.85,18.19c7.4-1.54,25.29,3.08,11.1,11.41-14.19,8.33-54.89,34.85-66.61,40.71-11.72,5.86-18.5,6.21-18.5,6.21l-14.8-78.68Z"/>
    <path class="st34" d="M3180.92,1631.67s25.67-8.13,28.87-17.22c3.2-9.09-11.57-103.69-16.85-107.72-5.28-4.03-31.48,12.43-31.48,12.43l19.46,112.51Z"/>
    <g>
      <g>
        <path class="st30" d="M1835.66,1915.61l344.47,155.19c11.94,5.38,17.42,19.3,12.35,31.38l-106.09,252.63c-5.29,12.61-19.99,18.31-32.4,12.58l-336.75-162.56c-12.27-5.66-17.5-20.29-11.62-32.45l98.36-245.26c5.7-11.78,19.74-16.88,31.67-11.51Z"/>
        <rect class="st41" x="1934.79" y="1938.07" width="15.56" height="424.18" transform="translate(-835.06 2975.72) rotate(-64.46)"/>
        <polygon class="st12" points="1980.42 2142.4 1962.97 2185.13 1901.28 2156.98 1921.64 2114.73 1980.42 2142.4"/>
        <path class="st30" d="M2078.91,2033.28c-.79-.08-1.58-.28-2.35-.61-3.94-1.71-5.75-6.29-4.04-10.23l18.67-43.04-111.04-47.49-14.72,41.46c-1.44,4.04-5.88,6.16-9.93,4.73-4.05-1.44-6.16-5.89-4.73-9.93l17.5-49.27c.72-2.03,2.24-3.66,4.21-4.52,1.97-.86,4.21-.86,6.18-.03l125.84,53.83c1.9.82,3.4,2.35,4.17,4.28.76,1.92.73,4.07-.09,5.97l-21.78,50.21c-1.38,3.17-4.61,4.97-7.88,4.65Z"/>
      </g>
      <path class="st9" d="M2016.33,1876.14s-30.2,34.94-34.83,44.19c-4.63,9.25-2.78,40.71,0,49.03,2.78,8.33,30.8,14.8,34.83,12.95,0,0,8.65,19.43,28.08,21.28,19.43,1.85,28.68,0,40.71-16.65,12.03-16.65,29.61-48.12,23.13-74.02-6.48-25.9-91.92-36.79-91.92-36.79Z"/>
      <g class="st55">
        <g>
          <path class="st30" d="M1835.66,1915.61l344.47,155.19c11.94,5.38,17.42,19.3,12.35,31.38l-106.09,252.63c-5.29,12.61-19.99,18.31-32.4,12.58l-336.75-162.56c-12.27-5.66-17.5-20.29-11.62-32.45l98.36-245.26c5.7-11.78,19.74-16.88,31.67-11.51Z"/>
          <rect class="st41" x="1934.79" y="1938.07" width="15.56" height="424.18" transform="translate(-835.06 2975.72) rotate(-64.46)"/>
          <polygon class="st12" points="1980.42 2142.4 1962.97 2185.13 1901.28 2156.98 1921.64 2114.73 1980.42 2142.4"/>
          <path class="st30" d="M2078.91,2033.28c-.79-.08-1.58-.28-2.35-.61-3.94-1.71-5.75-6.29-4.04-10.23l18.67-43.04-111.04-47.49-14.72,41.46c-1.44,4.04-5.88,6.16-9.93,4.73-4.05-1.44-6.16-5.89-4.73-9.93l17.5-49.27c.72-2.03,2.24-3.66,4.21-4.52,1.97-.86,4.21-.86,6.18-.03l125.84,53.83c1.9.82,3.4,2.35,4.17,4.28.76,1.92.73,4.07-.09,5.97l-21.78,50.21c-1.38,3.17-4.61,4.97-7.88,4.65Z"/>
        </g>
      </g>
    </g>
  </g>
  <g>
    <path class="st53" d="M4407.28,3395.35s-30.22-21.59,0-51.19c30.22-29.61,148.64-45.64,200.45,0,51.81,45.64,78.95,76.48,69.08,157.89-9.87,81.41-34.54,117.19-18.5,155.43,16.04,38.24,37.13,86.35,20.51,114.72-16.62,28.37-40.24,66.61-90.82,70.31-50.58,3.7-123.36-164.06-133.22-192.43-9.87-28.37-47.49-254.73-47.49-254.73Z"/>
    <path class="st8" d="M4433.18,3751.23l-63.84,90.67,174.86,46.26,11.72-119.65s-27.75-17.89-37.62-50.88c-9.87-33-9.87-106.39-6.17-111.95,3.7-5.55,37.01,5.55,43.79-39.47,6.78-45.02-25.9-43.17-35.77-33.92-9.87,9.25-28.99,14.8-27.76,1.23,1.23-13.57,1.85-41.94-10.49-62.29-12.34-20.35-34.54-49.96-35.77-69.7-1.23-19.74,4.32-37.62-2.47-34.54s-28.37,17.27-36.39,28.37c-8.02,11.1-31.46,36.39-62.29,55.51-30.84,19.12-24.67,45.64-14.19,50.58,10.49,4.93,15.42,17.27,12.95,32.69-2.47,15.42-12.95,29.61-3.7,30.22,9.25.62,33.31-1.85,29.61,6.17-3.7,8.02-37.01,17.27-33.31,28.99,3.7,11.72-18.5,46.88,3.7,58.59,22.2,11.72,61.06,15.42,74.63,31.46,13.57,16.04,31.46,40.17,18.5,61.68Z"/>
    <path class="st31" d="M4412.1,3818.57s37.31,60.6,109.43,8.6l-71.69,321.27-101.15-18.5,63.41-311.37Z"/>
    <path class="st33" d="M3957.65,3612.46l107.32-70.31,151.73,275.7s149.88-66.61,216.49-66.61c0,0-36.39,93.75-37.62,175.16-1.23,81.41,7.4,185.03,7.4,185.03,0,0,67.85-130.76,87.58-204.77,19.74-74.01,65.38-138.16,65.38-138.16,0,0,74.01,7.4,119.65,40.71,45.64,33.31,91.28,143.09,133.22,293.59,41.94,150.49,38.24,229.44-29.61,243.01-67.85,13.57-136.92-19.74-136.92-19.74l31.46,218.96-110.4,72.16-294.82-83.27-12.34-8.02s37.01-117.19,44.41-238.08c7.4-120.89-2.47-318.26-2.47-318.26,0,0-59.21,35.16-100.84,24.05-41.63-11.1-89.74-72.16-148.03-189.66-58.29-117.5-91.59-191.51-91.59-191.51Z"/>
    <path class="st47" d="M4268.5,4533.92s90.67,37.01,135.07-135.07c0,0,18.5,140.62,70.31,157.28,51.81,16.65,144.33,20.35,199.84-11.1,0,0,35.16,260.48,25.9,454.98h-458.88s1.85-338.4,27.76-466.08Z"/>
    <path class="st29" d="M4509.05,4274.26l38.24-130.76s-29.61-57.98-61.68-82.65c-32.07-24.67-50.58-20.92-53.36-10.64-2.39,8.82,34.86,39.01,34.86,39.01,0,0-35.36-35.63-45.64-14.83-10.27,20.8,40.7,38.27,40.7,38.27,0,0-42.74-33.69-50.97-17.46-8.24,16.23,27.54,49.54,27.54,49.54,0,0-25.72-34.54-41.85-18.5-16.13,16.04,12.24,46.88,12.24,46.88,0,0-18.5-35.77-32.07-9.87-13.57,25.9,24.67,82.65,131.99,111.02Z"/>
    <path class="st27" d="M4429.04,4241.69s33.75,19.93,80.01,32.57c46.26,12.64,50.72,29.82,133.22,51.81l4.5,31.3s-111.82-33.19-174.73-57.84c-62.91-24.65-54.55-32.74-43-57.84Z"/>
    <path class="st27" d="M4552.53,4146.28l105.47,24.98s-58.29-153.58-52.73-212.79c5.55-59.21,13.88,29.61,21.28,50.88,7.4,21.28,51.81,150.8,61.99,161.9,10.18,11.1,54.58,22.2,54.58,22.2,0,0-23.13,4.63-71.24-4.63-48.11-9.25-119.35-42.56-119.35-42.56Z"/>
    <path class="st0" d="M3980.82,3597.28s-18.24-34.78-56.47-71.79c-38.24-37.01-49.34-127.06-49.34-156.66s12.34-1.23,17.89,9.87c0,0-7.4-28.99,1.23-42.56,8.64-13.57,13.84.09,20.28,17.27,9.28,24.76,9.81,35.83,9.33,36.39,0,0-16.04-58.59-9.87-72.16s15.42-11.1,24.05,12.34c8.63,23.44,11.1,31.46,11.1,31.46,0,0-14.19-39.47-2.47-55.51,11.72-16.04,27.14,12.95,38.86,47.49,11.72,34.54,33.92,83.26,33.92,83.26,0,0,8.63-41.32,20.97-62.91,12.34-21.59,26.21-22.05,29.61-14.19,4.9,11.37,2.47,51.19-4.93,106.7-7.4,55.51-13.9,60.83-14.11,69.16-.16,6.1,3.81,13.45,3.81,13.45l-73.85,48.39Z"/>
    <path class="st46" d="M3916.3,3447.71l-24.94-71.97,29.5,70.22c1.25,3.04-3.45,4.86-4.56,1.75h0Z"/>
    <path class="st46" d="M3941.15,3422.81l-26.1-65.95,30.58,64c1.4,2.98-3.23,5.02-4.48,1.95h0Z"/>
    <path class="st46" d="M3968.99,3409.01l-25.52-64.51,29.99,62.55c1.4,2.98-3.23,5.02-4.47,1.95h0Z"/>
    <path class="st23" d="M4426.77,3463.63c-3.58,4.77-8.03,7.47-9.93,6.04s-.55-6.46,3.03-11.22c3.58-4.77,8.03-7.47,9.93-6.04,1.91,1.43.55,6.46-3.03,11.22Z"/>
  </g>
  <g>
    <path class="st56" d="M4848.58,4357.37s-71.24,396.33,0,642.63h467.21s62.91-430.92,0-601.15c-62.91-170.23-355.26-207.24-373.77-188.73-18.5,18.5-93.44,147.25-93.44,147.25Z"/>
    <path class="st6" d="M5044.41,3263.36s12.34-84.5,40.71-111.64c28.37-27.14,117.19-49.34,187.5-9.87,70.31,39.47,114.72,129.52,96.22,183.8-18.5,54.28-37.01,87.58-13.57,120.89,23.44,33.31,55.51,65.38,38.24,91.28-17.27,25.9-94.98,81.41-166.53,81.41s-95.59-97.45-95.59-97.45l-86.98-258.43Z"/>
    <path class="st26" d="M5047.49,3627.26l151.11,22.82,22.82-76.48s-20.97-107.94-10.48-156.04c0,0,34.54,6.17,48.11-25.29,13.57-31.46-6.17-46.26-17.89-54.89-11.72-8.63-38.24,12.34-38.24,12.34,0,0-37.01-35.77-56.13-84.5-19.12-48.73-12.95-98.68-12.95-98.68,0,0-39.47,17.27-51.19,38.86-11.72,21.59-22.2,48.73-38.24,57.98-16.04,9.25-51.19,43.17-44.41,54.28s31.46,11.1,28.99,28.37c-2.47,17.27-3.7,33.31,2.47,33.92,2.51.25,6.85,1.11,11.13,2.05,3.04.67,3.44,4.88.55,6.04-4.32,1.73-8.61,4.28-10.44,7.95-4.32,8.63-8.63,27.75-8.02,37.01.62,9.25-4.32,25.29,24.67,37.62,28.99,12.34,44.56,12.27,45.77,46.18.62,17.27-8.77,29.69-8.77,29.69l-38.86,80.8Z"/>
    <path class="st36" d="M5108.79,3277.85c-4.25,5.32-10.29,7.57-13.48,5.02-3.19-2.55-2.34-8.93,1.91-14.26,4.25-5.32,10.29-7.57,13.48-5.02s2.34,8.93-1.91,14.26Z"/>
    <g>
      <path class="st0" d="M4709.56,3021.41s-5.11-38.94-28.23-86.87c-23.12-47.93-2.46-136.28,7.75-164.06,10.22-27.79,12,3.1,13.38,15.43,0,0,3.06-29.76,15.84-39.52,12.79-9.76,12.96,4.86,13.07,23.21.16,26.44-3.16,37.02-3.8,37.37,0,0,5.17-60.53,15.64-71.13,10.47-10.61,18.3-5.1,18.32,19.88.02,24.98-.44,33.35-.44,33.35,0,0,.31-41.94,16.84-52.95,16.53-11.01,21,21.52,20.08,57.98-.92,36.46,3.1,89.86,3.1,89.86,0,0,22.37-35.81,41.39-51.81,19.03-16,32.21-11.65,32.68-3.1.68,12.36-15.35,48.9-41.45,98.44-26.1,49.55-34.03,52.29-37.11,60.04-2.25,5.67-1.07,13.94-1.07,13.94l-86.01,19.93Z"/>
      <path class="st46" d="M4700.62,2853.88l1.43-76.16,3.45,76.09c.12,3.28-4.92,3.37-4.88.06h0Z"/>
      <path class="st46" d="M4732.54,2839.09l-1.74-70.91,6.61,70.62c.28,3.28-4.76,3.6-4.87.29h0Z"/>
      <path class="st46" d="M4763.43,2835.75l-1.69-69.35,6.56,69.06c.28,3.28-4.76,3.6-4.87.29h0Z"/>
    </g>
    <path class="st50" d="M5047.49,3579.1s83.26,96.27,173.93-5.5l-194.28,462.58-64.76-72.16,85.11-384.92Z"/>
    <g>
      <path class="st0" d="M5624.25,3170.43s10.24-37.91,39.52-82.34c29.28-44.43,20.55-134.74,14.12-163.64-6.43-28.9-12.31,1.48-15.31,13.52,0,0,.92-29.9-10.45-41.27-11.38-11.37-13.49,3.1-16.04,21.26-3.67,26.19-1.79,37.11-1.2,37.55,0,0,2.92-60.68-6.05-72.58-8.97-11.9-17.46-7.49-20.8,17.27-3.33,24.75-4,33.12-4,33.12,0,0,5.27-41.61-9.66-54.72-14.92-13.11-23.67,18.54-27.61,54.8-3.93,36.26-15.02,88.65-15.02,88.65,0,0-17.41-38.46-34.14-56.85-16.73-18.39-30.38-15.83-31.98-7.41-2.32,12.16,8.72,50.5,28.01,103.08,19.29,52.57,26.78,56.35,28.8,64.44,1.48,5.92-.8,13.96-.8,13.96l82.6,31.18Z"/>
      <path class="st46" d="M5654.73,3010.42l8.7-75.67-13.53,74.96c-.56,3.24,4.43,3.99,4.83.71h0Z"/>
      <path class="st46" d="M5625.05,2991.51l11.14-70.05-15.94,69.11c-.71,3.22,4.24,4.2,4.79.93h0Z"/>
      <path class="st46" d="M5594.88,2984.1l10.89-68.51-15.68,67.57c-.72,3.22,4.24,4.2,4.79.94h0Z"/>
    </g>
    <path class="st2" d="M4709.56,3016.53l-18.26,3.83s20.35,227.59,37.01,325.66c16.65,98.07,158.2,347.86,165.6,375.62,7.4,27.76,15.73,299.75,11.1,382.09-4.63,82.34-53.66,244.55-56.44,253.65-2.78,9.1,76.79,57.21,106.39,19.28,29.61-37.93,33.31-66.92,51.81-102.39,18.5-35.46,12.03,51.5,25.9,77.41,13.88,25.9,65.69,58.29,182.26,55.51,116.57-2.78,116.57,16.65,123.97-42.56,7.4-59.21-53.66-263.67-34.23-381.17,19.43-117.5,16.65-137.85,37.01-147.1,20.35-9.25,144.33-129.52,209.09-338.61,64.76-209.09,73.47-327.31,73.47-327.31l-82.6-31.18-24.17-9.73s-29.61,194.28-92.52,308.08c-62.91,113.8-159.13,188.73-203.54,136,0,0-68.46,86.35-116.57,218.34-48.11,131.99-75.25,186.27-75.25,186.27,0,0-17.27-131.99,7.4-259.05,24.67-127.06,49.34-172.7,49.34-172.7l-66.61,11.1s-110.16-148.03-144.51-219.57c-34.35-71.55-40.52-296.66-57.79-344.46l-107.87,23Z"/>
  </g>
  <g>
    <polygon class="st40" points="6543.86 5000 6314.66 5000 6199.75 4525.63 6102.54 5000 5878.36 5000 5950.47 4373.01 5967.26 4227.16 6055.07 4230.63 6055.1 4230.63 6263.99 4238.87 6434.29 4245.6 6439.89 4284.14 6445.57 4323.34 6445.63 4323.66 6449.84 4352.68 6450.55 4357.52 6454.28 4383.22 6459.99 4422.58 6543.86 5000"/>
    <polygon class="st25" points="6353.69 3590.52 6263.99 4238.89 6055.09 4230.63 6021.5 3893.39 6064.89 3651.49 6153.24 3590.52 6353.69 3590.52"/>
    <path class="st39" d="M6353.69,3590.52s-103.33,254.18-101.26,438.1c2.07,183.92,28.9,394.71,50.61,411.24,21.71,16.53,131.3,17.74,166.37-26.86,21.12-26.87,0-487.7,0-487.7,0,0,91.44,64.06,105.39,79.56,13.95,15.5-7.75,151.68-55.8,222.3l139.49,95.47s103.84-243.37,89.89-334.82c-13.95-91.44-137.94-227.83-199.94-282.08-62-54.25-194.77-115.21-194.77-115.21Z"/>
    <g>
      <path class="st20" d="M5676.77,3153.45s-10.7-37.76-40.5-81.8c-29.81-44.04-22.18-134.4-16.11-163.36,6.08-28.96,12.32,1.33,15.47,13.32,0,0-1.29-29.87,9.94-41.37,11.23-11.5,13.52,2.93,16.29,21.05,3.99,26.13,2.24,37.06,1.66,37.51,0,0-3.66-60.6,5.16-72.61,8.82-12.01,17.36-7.69,21,17,3.64,24.7,4.4,33.05,4.4,33.05,0,0-5.77-41.52,8.98-54.8,14.75-13.28,23.89,18.24,28.26,54.43,4.37,36.19,16.09,88.4,16.09,88.4,0,0,16.93-38.65,33.42-57.23,16.5-18.58,30.16-16.19,31.87-7.8,2.46,12.12-8.09,50.58-26.73,103.35-18.63,52.78-26.08,56.64-27.99,64.75-1.4,5.94.97,13.94.97,13.94l-82.17,32.17Z"/>
      <path class="st20" d="M5643.65,2989.09l-9.62-75.51,14.44,74.74c.6,3.23-4.37,4.04-4.82.77h0Z"/>
      <path class="st20" d="M5673.07,2969.83l-11.99-69.86,16.77,68.87c.75,3.21-4.19,4.25-4.78.99h0Z"/>
      <path class="st20" d="M5703.13,2962.05l-11.72-68.33,16.5,67.34c.76,3.21-4.19,4.25-4.78.99h0Z"/>
    </g>
    <path class="st14" d="M6153.24,3590.52s-66.13,122.04-78.53,255.27c-12.4,133.23-17.57,461.29-29.96,495.39-12.4,34.1-43.4,43.4-60.45,38.75-17.05-4.65-51.15,12.4-46.5-65.1,4.65-77.49,38.75-474.27,55.8-502.16,0,0-181.34-224.71-227.83-346.39-46.5-121.68-116.24-307.67-116.24-307.67l141.04-57.35s89.89,255.73,130.19,309.98c19.71,26.53,73.19,79.89,119.59,122.64,48.46,44.65,89.94,77.74,112.9,56.63Z"/>
    <path class="st45" d="M6323.73,3532.14s62,2.11,94.03-79.8c32.03-81.91,17.57-142.87-12.4-180.07-29.96-37.2-85.76-58.9-131.22-79.56-45.46-20.67-79.62-12.4-87.34,9.3-7.72,21.7,7.52,58.9,7.52,58.9l129.42,271.23Z"/>
    <path class="st20" d="M6233.83,3645.29s79.04-39.78,89.89-54.76c10.85-14.98,0-58.38,0-58.38,0,0,2.32-45.72,9.3-57.35,6.97-11.62,48.05-2.32,55.02-29.45,6.97-27.12-16.27-51.92-40.3-48.82-24.02,3.1-39.52,1.55-46.5-33.32-6.97-34.87-14.72-86.02-47.27-98.42-32.55-12.4-55.02-14.72-59.67-3.87-4.65,10.85-44.17,63.55-63.55,120.12-19.37,56.57-14.72,96.09,0,128.64,14.72,32.55,38.75,44.95,39.52,52.7.77,7.75-5.42,88.34-5.42,88.34l68.97-5.42Z"/>
    <path class="st24" d="M6233.83,3338.54c15.79,0,15.82,24.54,0,24.54s-15.82-24.54,0-24.54Z"/>
    <path class="st24" d="M6174.94,3326.91c15.79,0,15.82,24.54,0,24.54s-15.82-24.54,0-24.54Z"/>
    <path class="st5" d="M6150.57,3448.5c6.15-3.25,13-1.32,16.79,4.4.66.99,1.36,1.96,2,2.96.1.15.13.22.19.31.1.12.19.21.35.39.65.75,1.37,1.42,2.06,2.14.32.21.64.41.98.59.26.09.52.18.79.25,1.1.32,2.58.83,3.73.78-.74.03-1.11.04-1.25.05.26,0,1.49-.04,1.96,0,1.35.13,2.71.21,4.06.26,2.37.08,4.75.04,7.12-.12,1.19-.08,2.4-.18,3.59-.35.37-.07.82-.15,1.23-.23,2.34-.43,4.65-.98,6.93-1.64,1.3-.38,2.59-.8,3.87-1.25.5-.18,4.55-1.83,1.8-.64,5.88-2.54,13.44-1.94,16.79,4.4,2.79,5.29,1.89,14.07-4.4,16.79-12.32,5.32-25.45,8.33-38.95,7.48-6.89-.44-14.18-1.31-20.23-4.91-5.96-3.55-10.05-9.2-13.81-14.88-3.55-5.37-1.24-13.81,4.4-16.79Z"/>
    <path class="st4" d="M6245.69,3677.83s-50.6,20.73-50.6,41.36-20.22,121.06-8.38,378.73c.55,12.06-2.01,24.09-7.52,34.84l-34.71,67.71s-16.93-26.68-26.56-66.97c-9.63-40.3,2.3-286.73,26.56-364.22,24.26-77.49,27.36-81.37,20.39-118.57l68.97-5.42s18.37,29.64,11.85,32.55Z"/>
    <path class="st5" d="M6170.29,3562.37s31,6.97,63.55-13.17c0,0-25.6,40.81-64.72,41.33l1.18-28.16Z"/>
    <path class="st20" d="M6646.88,4313.29l-112.76-75.79s-76.85,30.98-110.06,57.88c-33.21,26.9-33.89,46.83-24.01,52.21,8.47,4.61,48.62-26.24,48.62-26.24,0,0-45.27,27.59-26.42,43.24,18.85,15.65,49.29-32.43,49.29-32.43,0,0-45.09,35.64-30.44,48.08,14.65,12.44,57.64-16.14,57.64-16.14,0,0-41.79,17.95-29.27,38.45,12.52,20.5,51.16-1.08,51.16-1.08,0,0-41.29,10.24-18,30.53,23.28,20.29,88.8-15.42,144.26-118.71Z"/>
  </g>
</svg>