<?xml version="1.0" encoding="UTF-8"?>
<!DOCTYPE svg PUBLIC "-//W3C//DTD SVG 1.1//EN" "http://www.w3.org/Graphics/SVG/1.1/DTD/svg11.dtd">
<!-- Creator: CorelDRAW 2020 (64-Bit Evaluation Version) -->
<svg xmlns="http://www.w3.org/2000/svg" xml:space="preserve" width="9051px" height="6307px" version="1.1" style="shape-rendering:geometricPrecision; text-rendering:geometricPrecision; image-rendering:optimizeQuality; fill-rule:evenodd; clip-rule:evenodd"
viewBox="0 0 529.43 368.91"
 xmlns:xlink="http://www.w3.org/1999/xlink"
 xmlns:xodm="http://www.corel.com/coreldraw/odm/2003">
 <defs>
  <style type="text/css">
   <![CDATA[
    .fil6 {fill:#EB957B}
    .fil13 {fill:#C67549}
    .fil7 {fill:black}
    .fil0 {fill:#008B50}
    .fil1 {fill:#009A59}
    .fil11 {fill:#EF7F0F}
    .fil9 {fill:#EF7F0F}
    .fil12 {fill:#FEFFFD}
    .fil10 {fill:#FFBA12}
    .fil5 {fill:#FEFEFE;fill-rule:nonzero}
    .fil8 {fill:black;fill-rule:nonzero}
    .fil2 {fill:#009A59;fill-rule:nonzero}
    .fil4 {fill:#D43736;fill-rule:nonzero}
    .fil3 {fill:#E83F41;fill-rule:nonzero}
    .fil14 {fill:white;fill-rule:nonzero}
   ]]>
  </style>
 </defs>
 <g id="Layer_x0020_1">
  <metadata id="CorelCorpID_0Corel-Layer"/>
  <rect class="fil0" width="529.43" height="368.91"/>
  <g id="_1853934196432">
   <g>
    <ellipse class="fil1" transform="matrix(0.181152 0.129966 -0.129966 0.181152 385.114 110.881)" rx="140.15" ry="84.55"/>
    <path class="fil2" d="M92.9 208.23c-0.37,-34.66 9.78,-70.51 24.21,-98.67 11.61,-22.67 29.04,-42.41 52.47,-55.64 25.09,-14.19 59.59,-15.25 87.57,-8.37 57.81,14.22 79.09,63.38 120.65,96.85 17.27,13.9 38.67,24.07 53.53,40.39 15.11,16.55 17.79,43.59 12.1,63.81 -8.84,31.49 -38.99,52.83 -70.69,64.59 -25.81,9.58 -53.8,13.21 -81.57,15.22 -30.86,2.23 -60.58,0.76 -91.17,-2.34 -27.74,-2.81 -53.01,-11.21 -73.15,-29.55 -25.49,-23.21 -33.62,-54.37 -33.95,-86.29l0 0zm329.62 -60.27c3.83,-3.42 11.53,-1.78 14.14,2.72 1.52,2.59 1.02,5.78 -1.2,7.7 -2.22,1.91 -6.03,2.44 -9.21,1.27 -2.67,-0.97 -4.8,-3.03 -5.51,-5.34 -0.73,-2.28 -0.03,-4.73 1.78,-6.35l0 0zm-313.26 133.5c0.35,2.13 0.47,4.53 -1.28,6.46 -7.75,8.53 -20.73,-10.88 -13.61,-18.31 5.41,-5.63 13.61,3.98 14.89,11.85zm241.17 -214.02c7.52,6.42 11.5,17.56 1.73,23.28 -3.71,2.17 -8.52,2.46 -12.73,1.26 -5.48,-1.55 -11.21,-5.77 -13.85,-10.45 -6.06,-10.77 2.53,-20.99 15.44,-18.8 3.27,0.56 6.58,2.31 9.41,4.71l0 0z"/>
   </g>
   <polygon class="fil3" points="396.05,304.51 439.55,304.51 439.55,68.52 396.05,68.52 "/>
   <polygon class="fil4" points="396.05,304.51 413.94,304.51 413.94,68.52 396.05,68.52 "/>
   <polygon class="fil3" points="111.6,304.51 155.1,304.51 155.1,226.81 111.6,226.81 "/>
   <polygon class="fil4" points="111.6,304.51 129,304.51 129,226.81 111.6,226.81 "/>
   <polygon class="fil3" points="255.4,304.51 298.9,304.51 298.9,116 255.4,116 "/>
   <polygon class="fil4" points="255.4,304.51 272.68,304.51 272.68,116 255.4,116 "/>
   <polygon class="fil3" points="185.07,304.51 228.57,304.51 228.57,157.69 185.07,157.69 "/>
   <polygon class="fil4" points="185.07,304.51 202.47,304.51 202.47,157.69 185.07,157.69 "/>
   <polygon class="fil3" points="325.72,304.51 369.23,304.51 369.23,130.14 325.72,130.14 "/>
   <polygon class="fil4" points="325.72,304.51 342.4,304.51 342.4,130.14 325.72,130.14 "/>
   <path class="fil5" d="M285.88 303.93l-66.46 -90.99c-2.44,-3.35 -7.41,-3.45 -9.99,-0.2l-70.28 88.58 -22.72 -18.02 88.87 -112.02c5.14,-6.47 15.03,-6.27 19.9,0.4l64.33 88.08c2.5,3.43 7.61,3.44 10.13,0.02l120.48 -163.61 23.36 17.2 -140.36 190.6c-4.29,5.82 -13,5.8 -17.26,-0.04z"/>
   <path class="fil5" d="M460.78 61.39l-54.69 22.13c-2.64,1.07 -3.14,4.6 -0.89,6.35l46.51 36.3c2.24,1.76 5.55,0.42 5.94,-2.41l8.19 -58.42c0.39,-2.83 -2.42,-5.02 -5.06,-3.95z"/>
   <g>
    <path class="fil6" d="M164.05 97.61l5.32 -10.77c0,0 13.6,-24.01 14.02,-23.59 0.41,0.41 10.79,3.5 10.79,3.5l1.08 6.03c0,0 1.9,6.61 0.78,8.12 -1.12,1.52 -1.25,2.15 -1.25,2.15 0,0 5.17,7.37 -0.94,6.09 0,0 -1.11,6.97 -2.85,8.28 0,0 -1.48,0.78 -3.35,-0.16 0,0 -4.42,-1.16 -5.38,6.15l-18.22 -5.8z"/>
    <path class="fil7" d="M187.65 97.26c0,0 -2.02,-0.53 -3.62,1.37 -0.72,-1.46 -1.87,-4.64 -0.97,-8.95 0,0 -0.57,4.48 4.59,7.58z"/>
    <path class="fil7" d="M195.81 78.24c-1.84,-0.38 -3.47,-0.2 -3.21,0.06 1.39,1.36 5.06,0.32 3.21,-0.06z"/>
    <ellipse class="fil7" transform="matrix(1.74583 0.340697 -0.340697 1.74583 193.827 81.3046)" rx="0.42" ry="0.58"/>
    <path class="fil8" d="M190.96 88.06c0,0 0.42,2.28 2.19,2.84l-0.1 0.31c-1.97,-0.61 -2.42,-3.08 -2.42,-3.09l0.33 -0.06z"/>
    <path class="fil8" d="M189.93 88.58c0,0 0.64,-1.27 1.48,-0.54l-0.21 0.25c-0.53,-0.45 -0.98,0.44 -0.98,0.44l-0.29 -0.15z"/>
    <path class="fil8" d="M182.16 77.29c0.01,0.01 1.96,0.74 1.35,4.29l-0.32 -0.06c0.56,-3.28 -1.15,-3.92 -1.15,-3.92l0.12 -0.31z"/>
    <path class="fil7" d="M169.08 88.38c2.08,0.22 8.77,-1.78 9.42,-3.16 0.64,-1.37 1.3,-8.6 3.25,-9.29 1.94,-0.68 4.5,2.51 3.69,5.03l1.85 1.74 4.15 -7.85c0,0 -1.68,-8.9 0.78,-6.52 2.47,2.38 3.04,4.45 3.04,4.45 0,0 5.97,-7.18 -3.24,-8.19 0,0 -4.21,-9.97 -7.11,-4.66 0,0 -13.57,-6.95 -14.84,2.13 0,0 -8.76,0.02 -5.74,11.73 0.3,1.14 3.45,14.45 4.75,14.59z"/>
    <circle class="fil9" cx="201.83" cy="238.67" r="62.54"/>
    <circle class="fil10" cx="211.31" cy="238.67" r="62.54"/>
    <path class="fil9" d="M255.41 238.67c0,26.53 -20.76,48.21 -46.93,49.68 0.94,0.05 1.88,0.08 2.83,0.08 27.48,0 49.75,-22.28 49.75,-49.76 0,-27.48 -22.27,-49.76 -49.75,-49.76 -0.95,0 -1.89,0.03 -2.83,0.08 26.17,1.47 46.93,23.15 46.93,49.68z"/>
    <path class="fil8" d="M211.31 188.75c13.78,0 26.26,5.59 35.3,14.62 9.03,9.03 14.62,21.52 14.62,35.3 0,13.79 -5.59,26.27 -14.62,35.3 -9.04,9.04 -21.52,14.62 -35.3,14.62 -13.79,0 -26.27,-5.58 -35.31,-14.62 -9.03,-9.03 -14.62,-21.51 -14.62,-35.3 0,-13.78 5.59,-26.27 14.62,-35.3 9.04,-9.03 21.52,-14.62 35.31,-14.62zm35.06 14.86c-8.97,-8.98 -21.37,-14.53 -35.06,-14.53 -13.7,0 -26.1,5.55 -35.07,14.53 -8.97,8.97 -14.52,21.37 -14.52,35.06 0,13.7 5.55,26.09 14.52,35.07 8.97,8.97 21.37,14.52 35.07,14.52 13.69,0 26.09,-5.55 35.06,-14.52 8.98,-8.98 14.53,-21.37 14.53,-35.07 0,-13.69 -5.55,-26.09 -14.53,-35.06z"/>
    <path class="fil11" d="M212.59 241.88c2.02,0.73 3.48,1.48 4.4,2.26 1.39,1.15 2.08,2.91 2.08,5.26 0,3.88 -2.16,6.15 -6.48,6.81l0 -14.33zm0 20.89c4.08,-0.34 7.4,-1.49 9.95,-3.45 3.38,-2.57 5.07,-6.24 5.07,-11 0,-3.51 -0.86,-6.3 -2.57,-8.36 -2.12,-2.53 -6.06,-4.59 -11.82,-6.16l-0.63 -0.19 0 -14.82c2.97,0.93 4.96,3.48 5.96,7.65l8.29 -2.26c-2.29,-7.2 -7.04,-11.22 -14.25,-12.08l0 -4.89 -6.57 0 0 4.94c-3.2,0.45 -5.89,1.52 -8.08,3.24 -3.23,2.49 -4.83,5.82 -4.83,9.96 0,3.61 0.85,6.48 2.57,8.58 1.92,2.37 5.37,4.35 10.34,5.94l0 15.96c-0.93,-0.34 -1.79,-0.81 -2.58,-1.43 -1.98,-1.54 -3.31,-3.82 -3.99,-6.85l-8.17 2.59c1.07,3.94 3.06,6.99 5.97,9.15 2.39,1.78 5.31,2.9 8.77,3.35l0 4.03 6.57 0 0 -3.9zm-6.57 -43.86l0 12.52c-0.96,-0.44 -1.73,-0.9 -2.31,-1.37 -1.41,-1.2 -2.13,-2.96 -2.13,-5.26 0,-1.86 0.62,-3.35 1.86,-4.46 0.71,-0.62 1.57,-1.1 2.58,-1.43z"/>
    <polygon class="fil8" points="189.8,180.09 179.1,180.09 179.1,179.76 189.8,179.76 "/>
    <polygon class="fil8" points="166.05,187.21 175.65,187.21 175.65,187.54 166.05,187.54 "/>
    <polygon class="fil8" points="154.31,197.85 163.52,197.85 163.52,198.18 154.31,198.18 "/>
    <polygon class="fil8" points="142.35,219.13 151.9,219.13 151.9,219.46 142.35,219.46 "/>
    <polygon class="fil8" points="139.94,247.53 149.41,247.53 149.41,247.86 139.94,247.86 "/>
    <polygon class="fil8" points="147.64,269.74 156.99,269.74 156.99,270.07 147.64,270.07 "/>
    <polygon class="fil8" points="161.04,285.91 170.01,285.91 170.01,286.24 161.04,286.24 "/>
    <polygon class="fil8" points="176.2,295.57 185.03,295.57 185.03,295.9 176.2,295.9 "/>
    <path class="fil12" d="M190.52 107.17c0,0 -15.96,-20.84 -34.83,-11.62 -18.87,9.23 -60.19,46.64 -60.66,64.87 -0.48,18.22 1.43,13.19 1.43,13.19l69.79 -39.33 7.2 -11.04 5.99 0c0,0 11.99,-10.79 11.08,-16.07z"/>
    <path class="fil6" d="M174.4 117.95c0,0 2.38,-11.44 14.78,-10.61l13.95 12.76c0,0 8.02,18.87 8.56,40.94 0,0 7.42,9.65 8.23,10.1 0.81,0.45 4.15,7.66 4.15,7.66 0,0 -0.99,1.8 -2.62,-0.09 0,0 -0.18,1.53 -1.62,0.45 0,0 0.18,1.08 -1.89,0.09 -2.08,-0.99 -6.67,-5.68 -6.67,-5.68l-3.88 1.08c0,0 -0.36,7.85 -3.16,7.76l-1.35 -8.66c0,0 -0.54,-6.22 0.27,-9.65l-14.82 -34.31 -13.93 -11.84z"/>
    <path class="fil6" d="M112.05 222.11l-10.14 16.73c0,0 -17.42,12.48 -26.61,46.76l1.78 8.51 12.9 -3.71c0,0 24.56,-39.69 33.89,-49.57 9.32,-9.87 14.95,-25.5 14.95,-25.5l-26.77 6.78z"/>
    <path class="fil13" d="M73.45 283.94c0,0 9.18,9.3 18.25,5.84 9.06,-3.46 2.03,2.86 2.03,2.86l4.17 9.66c0,0 8.94,0 10.37,4.29 0,0 -2.38,7.04 -15.62,4.3 -13.24,-2.75 -29.1,-13.36 -29.1,-13.36l9.9 -13.59z"/>
    <path class="fil6" d="M150.03 137.87l8.87 -7.13c0,0 35.38,-6.93 24.64,17.28 -10.73,24.21 -26.12,43.42 -26.12,43.42l-5.71 9.98 -11.45 -6.2 10.97 -27.19 -1.2 -30.16z"/>
    <path class="fil8" d="M170.36 146c-0.03,0.01 -11.79,3.79 -15.45,10.89l-0.3 -0.15c3.72,-7.23 15.62,-11.04 15.65,-11.06l0.1 0.32z"/>
    <path class="fil7" d="M98.11 161.28c0,0 -6.71,15.59 5.62,31.92l1.45 38.63 35.91 -10.89c0,0 -4.17,-35.18 -0.73,-40.8l15.42 -5.44c0,0 -3.77,-33.81 3.12,-43.96 0,0 -53.68,12.15 -60.79,30.54z"/>
    <path class="fil13" d="M139.47 191.61c0,0 2.17,1.53 3.25,3.16 1.08,1.62 19.93,-10.01 18.58,-6.23 -1.35,3.79 -1.62,3.43 -1.62,3.43 0,0 8.84,3.88 9.38,4.06 0.54,0.18 9.83,-2.35 11.45,0.72 0,0 0.81,4.24 -4.06,6.5 -4.87,2.25 -12.71,6.67 -12.71,6.67 0,0 -23.36,0.09 -25.17,-2.16 -1.8,-2.26 -2.61,-9.39 0.9,-16.15z"/>
    <path class="fil14" d="M105.33 180.77c0.04,0.03 15.16,9.79 34.96,-0.78l0.15 0.3c-19.97,10.65 -35.25,0.79 -35.29,0.76l0.18 -0.28z"/>
    <path class="fil8" d="M173.76 120.55l0.48 -2.63c0,-0.04 2.56,-12.02 14.96,-10.74l-0.03 0.33c-12.06,-1.24 -14.58,10.35 -14.61,10.48l-0.47 2.62 -0.33 -0.06z"/>
   </g>
  </g>
 </g>
</svg>
